<?xml version="1.0" standalone="no"?>
<!DOCTYPE svg PUBLIC "-//W3C//DTD SVG 20010904//EN"
 "http://www.w3.org/TR/2001/REC-SVG-20010904/DTD/svg10.dtd">
<svg version="1.0" xmlns="http://www.w3.org/2000/svg"
 width="700.000000pt" height="700.000000pt" viewBox="0 0 700.000000 700.000000"
 preserveAspectRatio="xMidYMid meet">
<metadata>
Created by potrace 1.14, written by Peter Selinger 2001-2017
</metadata>
<g transform="translate(0.000000,700.000000) scale(0.100000,-0.100000)"
fill="#000000" stroke="none">
<path d="M4255 5840 c-16 -9 -213 -125 -437 -259 l-408 -244 0 -99 c0 -95 1
-98 23 -99 12 0 78 -1 148 -3 146 -2 181 -16 214 -81 25 -52 21 212 39 -2797
0 -136 -2 -244 -5 -240 -4 4 -27 63 -52 132 -145 392 -360 970 -372 1000 -8
19 -66 177 -130 350 -64 173 -169 455 -232 625 -63 171 -118 319 -124 330 -5
11 -33 88 -63 170 -30 83 -57 158 -61 168 -6 15 -23 17 -140 17 l-133 0 -371
-222 -371 -223 0 -97 0 -98 63 -1 c34 0 69 -2 77 -4 8 -1 31 -5 50 -9 102 -17
226 -76 277 -134 14 -15 39 -56 56 -92 28 -59 31 -74 30 -166 l0 -101 -97
-264 c-54 -145 -102 -273 -107 -284 -10 -24 -209 -555 -213 -570 -2 -5 -6 -17
-9 -25 -3 -8 -50 -132 -103 -275 -93 -251 -114 -299 -114 -262 0 10 -4 25 -10
35 -9 15 -167 430 -174 457 -2 6 -7 19 -11 30 -4 11 -21 56 -37 100 -16 44
-33 89 -38 100 -4 11 -13 36 -20 55 -7 19 -18 49 -25 65 -7 17 -20 53 -30 80
-9 28 -21 59 -26 70 -5 11 -49 130 -99 265 -50 135 -115 308 -144 385 l-53
140 -134 -1 c-125 0 -137 -2 -174 -26 -22 -13 -60 -36 -85 -50 -233 -132 -576
-342 -580 -356 -3 -9 -5 -55 -5 -102 l1 -85 144 -1 c208 -3 265 -25 310 -122
21 -44 177 -455 227 -597 13 -38 28 -79 33 -90 5 -11 26 -65 46 -120 34 -95
64 -176 303 -819 55 -148 102 -270 104 -272 2 -2 129 -5 283 -6 l279 -3 34 90
c64 172 152 410 177 480 14 39 29 79 34 90 5 11 39 101 76 200 126 344 265
720 274 740 5 11 51 133 102 272 51 139 96 249 100 245 5 -6 205 -537 338
-902 58 -160 422 -1136 432 -1160 6 -14 14 -32 18 -40 6 -13 85 -15 615 -16
l607 -1 -5 1208 c-6 1123 -5 1210 11 1225 23 24 108 76 165 102 120 56 205 90
237 97 8 2 42 11 76 19 142 38 339 42 441 10 155 -48 254 -163 288 -334 8 -40
14 -789 15 -1696 l0 -631 573 1 572 1 1 113 c2 108 1 112 -20 113 -67 2 -209
35 -255 58 -55 29 -92 74 -107 130 -9 35 -13 133 -14 313 -1 145 -3 565 -4
933 -2 369 -6 680 -9 690 -3 11 -8 41 -11 66 -19 145 -80 303 -160 409 -122
163 -272 247 -526 295 -76 15 -354 14 -445 -1 -297 -48 -665 -199 -802 -327
l-33 -31 -1 205 c-1 327 -10 1585 -12 1684 l-2 89 -135 1 c-103 1 -141 -3
-165 -15z"/>
</g>
</svg>
