<svg width="147" height="113" viewBox="0 0 147 113" fill="none" xmlns="http://www.w3.org/2000/svg">
<g clip-path="url(#clip0)">
<path d="M9.21881 103.891C8.9182 103.464 8.54243 103.15 8.10404 102.923C7.65312 102.697 7.16462 102.584 6.62602 102.584C6.08742 102.584 5.5864 102.685 5.14801 102.861C4.70961 103.049 4.33384 103.313 4.00818 103.665C3.69504 104.017 3.44453 104.431 3.2817 104.909C3.10634 105.387 3.01866 105.927 3.01866 106.518C3.01866 107.096 3.10634 107.623 3.2817 108.101C3.45706 108.579 3.69504 108.993 4.00818 109.345C4.32132 109.697 4.69709 109.973 5.13548 110.174C5.57387 110.376 6.06237 110.476 6.60097 110.476C7.75332 110.476 8.68021 109.999 9.36912 109.031L11.536 110.677C11.035 111.356 10.3962 111.909 9.60711 112.349C8.818 112.788 7.77837 113.002 6.51329 113.002C5.52377 113.002 4.62193 112.851 3.83282 112.537C3.03119 112.223 2.35481 111.796 1.77863 111.23C1.20245 110.665 0.764059 109.986 0.463446 109.182C0.150307 108.39 0 107.498 0 106.518C0 105.537 0.175358 104.645 0.513548 103.866C0.864264 103.074 1.32771 102.408 1.91641 101.855C2.50511 101.302 3.21907 100.875 4.03323 100.573C4.84739 100.272 5.73671 100.121 6.68865 100.121C7.60302 100.121 8.46728 100.284 9.28144 100.624C10.0956 100.963 10.772 101.466 11.3106 102.157L9.21881 103.891Z" fill="white"/>
<path d="M14.5781 100.41H19.0247C19.651 100.41 20.2522 100.473 20.8033 100.599C21.3545 100.724 21.8555 100.938 22.2813 101.227C22.7072 101.529 23.0454 101.906 23.2959 102.371C23.5464 102.836 23.6717 103.414 23.6717 104.092C23.6717 104.984 23.4462 105.726 22.9953 106.304C22.5444 106.882 21.9807 107.284 21.3044 107.498L24.2103 112.688H20.9662L18.5362 107.913H17.3463V112.688H14.5906V100.41H14.5781ZM18.7241 105.814C18.9746 105.814 19.2376 105.789 19.5007 105.751C19.7637 105.701 20.0017 105.625 20.2021 105.5C20.4025 105.374 20.5653 105.211 20.7031 104.984C20.8409 104.758 20.891 104.482 20.891 104.142C20.891 103.853 20.8409 103.615 20.7282 103.426C20.6154 103.238 20.4651 103.087 20.2773 102.974C20.0894 102.861 19.8764 102.785 19.6385 102.735C19.4005 102.685 19.1625 102.672 18.912 102.672H17.3337V105.814H18.7241Z" fill="white"/>
<path d="M27.5321 100.449H35.9618V102.711H30.2752V105.287H35.6611V107.461H30.2752V110.339H36.2498V112.689H27.5195V100.449H27.5321Z" fill="white"/>
<path d="M44.1147 100.422H46.7576L52.0309 112.687H48.9621L47.8849 110.023H42.8622L41.7975 112.687H38.8164L44.1147 100.422ZM47.0457 107.849L45.3548 103.614L43.7139 107.849H47.0457Z" fill="white"/>
<path d="M55.901 102.758H52.3438V100.434H62.2139V102.758H58.6566V112.686H55.901V102.758Z" fill="white"/>
<path d="M65.1953 100.422H67.9509V112.687H65.1953V100.422Z" fill="white"/>
<path d="M70.832 100.422H73.8131L76.8819 109.043H76.9696L80.0759 100.422H82.9192L78.0217 112.687H75.6544L70.832 100.422Z" fill="white"/>
<path d="M85.8008 100.449H94.2305V102.711H88.5439V105.287H93.9299V107.461H88.5439V110.339H94.5186V112.689H85.8008V100.449Z" fill="white"/>
<path d="M98.4258 100.676H100.004V105.765H106.655V100.676H108.233V112.69H106.655V107.148H100.004V112.69H98.4258V100.676Z" fill="white"/>
<path d="M113.33 112.69H111.664L116.825 100.676H118.29L123.426 112.69H121.647L120.407 109.686H114.595L113.33 112.69ZM115.159 108.304H119.843L117.526 102.511L115.159 108.304Z" fill="white"/>
<path d="M130.766 112.966C129.951 112.966 129.263 112.828 128.674 112.564C128.098 112.287 127.622 111.936 127.246 111.496C126.87 111.056 126.595 110.541 126.419 109.975C126.244 109.397 126.156 108.819 126.156 108.216V100.701H127.734V108.078C127.734 108.517 127.785 108.932 127.885 109.347C127.985 109.749 128.148 110.126 128.386 110.44C128.624 110.754 128.937 111.018 129.325 111.219C129.714 111.42 130.189 111.508 130.753 111.508C131.304 111.508 131.78 111.408 132.169 111.219C132.557 111.018 132.87 110.767 133.108 110.44C133.346 110.113 133.509 109.749 133.609 109.347C133.709 108.945 133.772 108.517 133.772 108.078V100.676H135.35V108.191C135.35 108.794 135.262 109.385 135.074 109.95C134.899 110.528 134.624 111.031 134.248 111.471C133.885 111.91 133.409 112.275 132.832 112.539C132.269 112.828 131.567 112.966 130.766 112.966Z" fill="white"/>
<path d="M145.733 102.9C145.483 102.548 145.145 102.272 144.744 102.071C144.343 101.87 143.88 101.769 143.366 101.769C143.103 101.769 142.815 101.807 142.527 101.882C142.239 101.958 141.988 102.071 141.763 102.234C141.537 102.397 141.349 102.598 141.212 102.837C141.074 103.076 140.999 103.378 140.999 103.717C140.999 104.069 141.061 104.345 141.187 104.559C141.312 104.773 141.487 104.961 141.713 105.124C141.938 105.275 142.201 105.413 142.489 105.514C142.777 105.614 143.103 105.728 143.441 105.828C143.842 105.966 144.255 106.105 144.681 106.255C145.107 106.406 145.483 106.607 145.821 106.871C146.159 107.135 146.435 107.449 146.66 107.826C146.873 108.216 146.986 108.706 146.986 109.309C146.986 109.925 146.873 110.465 146.635 110.93C146.397 111.395 146.084 111.772 145.696 112.074C145.307 112.375 144.869 112.602 144.381 112.74C143.892 112.878 143.391 112.953 142.865 112.953C142.113 112.953 141.387 112.803 140.673 112.501C139.972 112.199 139.395 111.76 138.957 111.194L140.222 110.126C140.485 110.566 140.848 110.918 141.312 111.182C141.788 111.445 142.301 111.584 142.878 111.584C143.166 111.584 143.454 111.546 143.742 111.458C144.03 111.37 144.305 111.244 144.543 111.068C144.781 110.892 144.982 110.679 145.132 110.415C145.282 110.151 145.358 109.837 145.358 109.472C145.358 109.095 145.282 108.781 145.12 108.53C144.957 108.279 144.756 108.078 144.493 107.902C144.23 107.738 143.93 107.6 143.579 107.487C143.228 107.374 142.878 107.261 142.502 107.135C142.113 107.009 141.725 106.871 141.349 106.72C140.974 106.57 140.635 106.356 140.347 106.105C140.059 105.841 139.821 105.527 139.633 105.15C139.446 104.773 139.358 104.308 139.358 103.767C139.358 103.177 139.483 102.674 139.721 102.234C139.959 101.807 140.272 101.455 140.661 101.178C141.049 100.902 141.475 100.701 141.963 100.575C142.439 100.45 142.94 100.387 143.429 100.387C144.143 100.387 144.794 100.512 145.395 100.776C145.996 101.04 146.485 101.367 146.848 101.794L145.733 102.9Z" fill="white"/>
<path d="M119.683 82.7519L120.046 50.003C120.184 37.8887 114.647 31.7687 103.437 31.6556C98.5896 31.6053 94.9697 32.573 92.5648 34.5836C90.1599 36.5943 88.3562 39.2585 87.1663 42.5761L87.6423 0L64.7831 13.3584L64.7706 15.5702L70.7328 15.633L70.1065 68.3253C69.1671 69.5191 68.2026 70.6878 67.163 71.7811C64.733 74.3699 61.9899 76.6822 58.8961 78.4541C56.7542 79.6856 54.437 80.6533 51.9945 80.9423C49.552 81.2313 46.9718 80.804 44.9301 79.4091C42.8133 77.9765 41.448 75.6266 40.6965 73.1886C39.3813 68.8908 39.469 64.1908 39.5191 59.7548L39.5817 53.8107C39.6694 45.3533 39.5942 43.418 40.0076 38.6427C40.5963 31.8567 42.3123 31.0398 44.3038 30.7759C47.6983 30.3235 49.7024 31.819 49.5896 35.6392C49.552 37.0341 49.527 38.1023 49.4769 39.9371C48.2243 39.9119 46.7839 39.8868 45.5439 39.8617C44.8049 43.1164 44.4792 46.7859 46.2954 49.5883C47.9864 52.1896 51.2179 53.4463 54.3118 53.572C56.8169 53.6725 59.4472 53.107 61.3135 51.4356C62.6413 50.2543 63.493 48.6207 63.994 46.9116C64.6579 44.6873 64.7581 42.287 64.2445 40.025C63.5431 36.9964 61.7269 34.2695 59.3596 32.2588C53.0467 26.8928 43.4897 26.1514 35.8741 28.8155C35.6612 28.8909 35.4483 28.9663 35.2353 29.0417C29.8619 31.0901 25.6157 34.7973 22.3465 39.4847C18.8644 44.4736 17.6244 50.468 17.5618 56.4874C17.4616 65.6611 19.7412 72.6608 24.3882 77.4739C29.0352 82.2869 35.7739 84.7374 44.5794 84.838C51.481 84.9134 56.9296 83.4933 60.9127 80.5653C64.1443 78.1902 67.3759 75.3878 70.0439 72.1707L69.9061 84.1342L86.6653 84.3353L87.0285 52.353C87.0786 48.0049 88.0055 44.3103 89.8092 41.2817C91.6129 38.2531 93.6671 36.7577 95.9843 36.7828C97.4999 36.7954 98.5395 37.4488 99.1032 38.7181C99.6668 39.9873 99.9299 42.8023 99.8798 47.1629L99.4539 84.4861L125.733 84.7751L125.758 82.8147L119.683 82.7519Z" fill="white"/>
</g>
<defs>
<clipPath id="clip0">
<rect width="147" height="113" fill="white"/>
</clipPath>
</defs>
</svg>
