<svg width="210" height="36" viewBox="0 0 210 36" fill="none" xmlns="http://www.w3.org/2000/svg">
<g clip-path="url(#clip0)">
<path d="M107.399 8.06275H107.436V1.27466V1.17483V0.234375L95.7018 6.84383V7.68446V7.97868H98.5593L98.6117 14.8456C97.7361 13.3009 95.9272 12.5286 93.1799 12.5286C87.0036 12.5286 83.9102 16.4533 83.9102 24.3079C83.9102 28.1853 84.6494 31.1065 86.1332 33.061C87.617 35.0155 89.6985 35.9927 92.3829 35.9927C95.6284 35.9927 97.778 34.7318 98.8424 32.2099L98.8843 35.5198H109.748V34.6687H107.457L107.399 8.06275ZM98.748 29.089C98.748 30.6967 98.4124 31.9104 97.7413 32.73C97.0702 33.5496 96.2733 33.9594 95.3557 33.9594C94.433 33.9594 93.8038 33.413 93.4578 32.3307C93.1117 31.2431 92.9439 29.0417 92.9439 25.7317V23.2729C92.9439 19.8053 93.1327 17.378 93.5049 15.9857C93.8772 14.5986 94.5798 13.9051 95.6127 13.9051C96.6403 13.9051 97.4215 14.378 97.9511 15.3237C98.4806 16.2694 98.748 17.42 98.748 18.7755V29.089Z" fill="white"/>
<path d="M188.662 13.0039H177.804V13.855H179.959V28.3297C179.959 30.0635 179.644 31.419 179.02 32.3962C178.396 33.3734 177.689 33.862 176.892 33.862C176.095 33.862 175.565 33.5626 175.298 32.9636C175.03 32.3647 174.899 31.1195 174.899 29.2281V13.0039H163.574V13.855H166.196V28.0932C166.196 33.3629 168.613 35.9952 173.452 35.9952C175.387 35.9952 176.844 35.6536 177.83 34.9759C178.811 34.2981 179.555 33.3261 180.053 32.0652L180.085 35.517H191.237V34.6659H188.662V13.0039Z" fill="white"/>
<path d="M57.9673 33.5365C57.0602 33.5365 56.6093 32.7169 56.6093 31.0777V21.4735C56.6093 18.0689 55.8963 15.7256 54.4807 14.4489C53.0598 13.1722 50.4959 12.5312 46.7786 12.5312C40.2562 12.5312 36.9951 14.47 36.9951 18.3526C36.9951 20.9691 38.3373 22.2773 41.0217 22.2773C41.0951 22.2773 41.1581 22.2615 41.2262 22.2615C41.2419 22.2615 41.2524 22.2668 41.2682 22.2668C41.3625 22.2668 41.4517 22.2458 41.5408 22.2405C41.6719 22.23 41.8029 22.2195 41.9288 22.2038C42.0808 22.1775 42.2276 22.1355 42.3744 22.0934C42.5108 22.0566 42.6471 22.0199 42.7729 21.9673C42.8149 21.9516 42.8516 21.9305 42.8935 21.9095C43.2815 21.7467 43.6433 21.5418 43.9631 21.2633C44.5923 20.7169 44.954 20.0864 45.0746 19.3824C45.1847 19.0146 45.2581 18.6363 45.2581 18.2318C45.2581 16.7659 44.4769 15.4892 43.3182 14.7852C43.3444 14.3123 43.5646 13.9288 43.9841 13.6503C44.435 13.3509 44.9435 13.1985 45.5045 13.1985C46.4378 13.1985 47.0722 13.7134 47.4025 14.7379C47.7276 15.7624 47.8954 17.7747 47.8954 20.7694V24.4104H46.5374C42.8883 24.4104 40.1776 24.8307 38.4159 25.6661C36.6543 26.5015 35.7734 28.0409 35.7734 30.2791C35.7734 34.0934 38.0804 36.0059 42.6995 36.0059C44.2619 36.0059 45.4469 35.7221 46.2595 35.1547C47.0722 34.5873 47.6804 33.7046 48.0841 32.5067C48.6451 34.8395 50.8 36.0059 54.5436 36.0059C56.6041 36.0059 58.0826 35.4857 58.9897 34.4454C59.8967 33.4052 60.4105 31.498 60.5364 28.7186L59.8338 28.6714C59.6555 31.913 59.0316 33.5365 57.9673 33.5365ZM47.9059 29.5645C47.9059 30.9831 47.6961 32.0969 47.2715 32.9008C46.852 33.7046 46.3959 34.1039 45.9135 34.1039C45.4259 34.1039 45.1008 33.8675 44.9278 33.3946C44.7548 32.9218 44.6709 31.8657 44.6709 30.2265V29.4699C44.6709 26.6013 45.6356 25.167 47.5755 25.167H47.9006V29.5645H47.9059Z" fill="white"/>
<path d="M209.486 24.1347C209.067 23.3623 208.49 22.7161 207.745 22.2117C206.901 21.6601 206.015 21.1977 205.077 20.8142C204.599 20.6198 204.107 20.4517 203.609 20.2993C202.078 19.8369 200.442 19.6425 198.947 19.0489C197.715 18.5602 196.599 17.4201 196.997 16.0226C197.186 15.3606 197.694 14.8667 198.292 14.5252C199.991 13.5585 202.272 13.3115 204.128 13.9315C204.248 13.9735 204.369 14.0208 204.489 14.0629C203.703 14.646 203.189 15.5602 203.189 16.5953C203.189 18.3553 204.647 19.7791 206.445 19.7791C208.243 19.7791 209.701 18.3553 209.701 16.5953C209.701 15.4289 209.056 14.4201 208.107 13.8685C207.855 13.7056 207.572 13.5848 207.289 13.4744C206.592 13.2065 205.874 13.0016 205.14 12.8597C201.737 12.1977 197.343 12.6128 194.743 15.0769C193.243 16.5007 192.499 18.3974 192.499 20.7827C192.499 21.7441 192.645 22.59 192.928 23.3413H192.876C192.944 23.4989 193.044 23.6303 193.122 23.7826C193.175 23.8982 193.222 24.0191 193.285 24.1294H193.316C193.626 24.6285 193.988 25.0961 194.454 25.4902C195.262 26.1364 196.127 26.7038 197.044 27.1925C197.516 27.4394 198.004 27.6653 198.497 27.865C200.017 28.4954 201.679 28.858 203.142 29.6145C204.883 30.5077 205.779 32.7196 203.85 33.9543C203.341 34.28 202.754 34.4639 202.161 34.5953C200.321 34.9946 198.334 34.8632 196.578 34.1855C197.537 33.7126 198.24 32.7879 198.355 31.6636C198.533 29.914 197.228 28.3536 195.44 28.1749C193.652 28.0016 192.058 29.2783 191.88 31.0331C191.78 31.9893 192.137 32.8825 192.766 33.5287C193.06 33.9648 193.537 34.2643 194.019 34.5007C194.706 34.8422 195.424 35.1259 196.158 35.3466C199.582 36.3658 204.133 36.3816 207.053 34.1119C208.736 32.8037 209.706 30.928 209.953 28.4849C210.089 27.1347 209.926 25.1329 209.486 24.1347Z" fill="white"/>
<path d="M161.775 33.3139C160.868 33.3139 160.417 32.4942 160.417 30.855V21.2508C160.417 17.8462 159.704 15.503 158.288 14.2263C156.867 12.9496 154.303 12.3086 150.586 12.3086C144.064 12.3086 140.802 14.2473 140.802 18.13C140.802 20.7464 142.145 22.0547 144.829 22.0547C144.902 22.0547 144.965 22.0389 145.034 22.0389C145.049 22.0389 145.06 22.0441 145.076 22.0441C145.17 22.0441 145.259 22.0231 145.348 22.0179C145.479 22.0074 145.61 21.9969 145.736 21.9811C145.888 21.9548 146.035 21.9128 146.182 21.8708C146.318 21.834 146.454 21.7972 146.58 21.7447C146.622 21.7289 146.659 21.7079 146.701 21.6869C147.089 21.524 147.451 21.3191 147.77 21.0406C148.394 20.4942 148.761 19.8638 148.882 19.1597C148.992 18.792 149.065 18.4137 149.065 18.0091C149.065 16.5433 148.284 15.2666 147.126 14.5625C147.152 14.0897 147.372 13.7061 147.791 13.4277C148.242 13.1282 148.751 12.9758 149.312 12.9758C150.245 12.9758 150.88 13.4907 151.205 14.5152C151.53 15.5398 151.697 17.552 151.697 20.5468V24.1878H150.34C146.69 24.1878 143.98 24.6081 142.218 25.4434C140.456 26.2788 139.57 27.8182 139.57 30.0564C139.57 33.8708 141.877 35.7832 146.496 35.7832C148.059 35.7832 149.244 35.4995 150.051 34.9321C150.864 34.3646 151.472 33.482 151.876 32.2841C152.437 34.6168 154.592 35.7832 158.335 35.7832C160.396 35.7832 161.874 35.2631 162.781 34.2228C163.688 33.1825 164.202 31.2753 164.328 28.496L163.625 28.4487C163.458 31.6904 162.834 33.3139 161.775 33.3139ZM151.708 29.3366C151.708 30.7552 151.498 31.869 151.074 32.6729C150.654 33.4767 150.198 33.8813 149.716 33.8813C149.228 33.8813 148.903 33.6449 148.73 33.172C148.557 32.6991 148.473 31.6431 148.473 30.0039V29.2473C148.473 26.3786 149.438 24.9443 151.378 24.9443H151.703V29.3366H151.708Z" fill="white"/>
<path d="M136.719 20.4326C136.719 15.1681 134.301 12.5306 129.462 12.5306C127.37 12.5306 125.813 12.972 124.78 13.8546C123.752 14.7373 122.987 15.9037 122.489 17.3538V7.82312H122.531V1.03503V0.935201V0L110.797 6.84588V7.98073H111.998V7.97548H113.78V35.5219H124.497V34.6707H122.484V21.6147C122.484 19.7233 122.866 18.1156 123.632 16.7916C124.397 15.4676 125.278 14.8056 126.274 14.8056C126.93 14.8056 127.381 15.0841 127.632 15.6357C127.884 16.1874 128.005 17.4116 128.005 19.303V35.5324H139.33V34.6813H136.708V20.4326H136.719Z" fill="white"/>
<path d="M77.6032 12.5312C76.1351 12.5312 74.8244 12.9673 73.6709 13.8342C72.5174 14.7011 71.7362 15.9411 71.3325 17.5488V13.0094H60.0547V13.8605H62.629V35.5277H74.6618V34.6766H71.3377V21.9936C71.3377 19.913 71.7729 18.1162 72.6485 16.5978C73.5241 15.0847 74.536 14.3281 75.6895 14.3281C76.0722 14.3281 76.3763 14.3911 76.6018 14.5067C75.2595 15.1582 74.321 16.5348 74.321 18.1372C74.321 19.3666 74.8768 20.4594 75.7367 21.2002C75.7943 21.2528 75.852 21.3001 75.9097 21.3474C76.5808 21.8622 77.4092 22.1775 78.3162 22.1775C78.7514 22.1775 79.1604 22.0882 79.5536 21.9621C80.3925 21.7887 81.0584 21.4314 81.5407 20.8587C82.2276 20.0391 82.5683 18.8622 82.5683 17.3334C82.5683 15.8045 82.107 14.6223 81.1894 13.7869C80.2614 12.9516 79.0712 12.5312 77.6032 12.5312Z" fill="white"/>
<path d="M35.9097 13.0039H33.026L28.6585 29.8008L24.4431 13.855H26.3621V13.0039H14.2873V13.855H16.0175L17.1867 18.8726L13.8207 29.9426L9.5109 13.855H12.3212V13.0039H0L7.1725 35.5275H13.4432L17.8421 21.0004L21.916 35.5275H28.3282L33.9435 13.855H35.9097V13.0039Z" fill="white"/>
</g>
<defs>
<clipPath id="clip0">
<rect width="210" height="36" fill="white"/>
</clipPath>
</defs>
</svg>
