<svg width="132" height="113" viewBox="0 0 132 113" fill="none" xmlns="http://www.w3.org/2000/svg">
<g clip-path="url(#clip0)">
<path d="M26.7229 26.1192H26.7356L26.7229 12.0938L5.96786 23.9838H5.95514H5.92969V28.0778H26.7229V26.1192Z" fill="white"/>
<path d="M125.841 82.7757V49.8979C125.841 37.7425 120.153 31.6521 108.789 31.6521C103.877 31.6521 100.212 32.6756 97.7943 34.7099C95.3764 36.7443 93.5822 39.4483 92.3987 42.7967L92.386 0L65.8537 15.2006L65.8791 18.4606H71.9236V82.7757H59.9364V49.8979C59.9364 37.7425 54.2481 31.6521 42.8844 31.6521C37.9724 31.6521 34.3075 32.6756 31.8897 34.7099C29.701 36.5547 28.0594 38.9555 26.8887 41.8743V32.7514H26.5069H6.04454V34.7226H6.05726V82.7883H0V84.7595H0.38176H26.8887V82.7883V48.23C27.3086 45.7155 28.0467 43.4538 29.2047 41.4826C30.9989 38.4248 33.0732 36.8959 35.4146 36.8959C36.9544 36.8959 38.0106 37.5403 38.6087 38.8039C39.1941 40.0801 39.4867 42.8978 39.4867 47.2697V82.7757H39.4104V84.7468H92.3351L92.386 52.6272C92.386 48.2553 93.2895 44.5404 95.0838 41.4826C96.878 38.4248 98.9523 36.8959 101.294 36.8959C102.834 36.8959 103.89 37.5403 104.488 38.8039C105.073 40.0801 105.366 42.8978 105.366 47.2697V82.7757V84.7468H132V82.7757H125.841Z" fill="white"/>
<path d="M35.4633 101.656V112.902H33.2109V101.656H35.4633Z" fill="white"/>
<path d="M49.3059 112.902H47.0407L41.9761 105.257V112.902H39.7109V101.656H41.9761L47.0407 109.364V101.656H49.3059V112.902Z" fill="white"/>
<path d="M62.0451 101.668V112.888H60.9253V107.569H54.8044V112.888H53.6719V101.668H54.8044V106.646H60.9253V101.668H62.0451Z" fill="white"/>
<path d="M73.0018 110.159H67.8608L66.83 112.901H65.6211L69.795 101.934H71.0675L75.2415 112.901H74.0198L73.0018 110.159ZM72.6709 109.262L70.444 103.21L68.1789 109.262H72.6709Z" fill="white"/>
<path d="M79.4685 101.668V108.466C79.4685 109.666 79.7357 110.551 80.2575 111.107C80.7919 111.675 81.5045 111.953 82.4335 111.953C83.3624 111.953 84.0751 111.675 84.5841 111.107C85.0931 110.538 85.3603 109.666 85.3603 108.466V101.668H86.4802V108.466C86.4802 109.982 86.1111 111.119 85.373 111.878C84.635 112.636 83.6424 113.002 82.408 113.002C81.1737 113.002 80.1811 112.623 79.443 111.878C78.705 111.119 78.3359 109.982 78.3359 108.466V101.668H79.4685Z" fill="white"/>
<path d="M97.4753 111.485C97.2335 111.94 96.8645 112.307 96.3554 112.585C95.8592 112.863 95.2229 113.002 94.4848 113.002C93.7595 113.002 93.1105 112.875 92.5506 112.61C91.9779 112.345 91.5325 111.978 91.1889 111.523C90.8454 111.068 90.6545 110.538 90.6036 109.969H91.787C91.8252 110.298 91.9525 110.626 92.1561 110.955C92.3597 111.283 92.6524 111.561 93.0341 111.776C93.4159 111.991 93.8867 112.104 94.4339 112.104C95.1465 112.104 95.6937 111.915 96.0755 111.536C96.4572 111.157 96.6481 110.677 96.6481 110.083C96.6481 109.59 96.5209 109.173 96.2664 108.87C96.0119 108.554 95.7064 108.314 95.3374 108.15C94.9684 107.985 94.4594 107.796 93.8231 107.594C93.1232 107.366 92.5506 107.151 92.1179 106.949C91.6852 106.747 91.3162 106.431 91.0235 106.039C90.7181 105.635 90.5781 105.104 90.5781 104.435C90.5781 103.588 90.8708 102.893 91.4816 102.362C92.0924 101.832 92.9069 101.566 93.9503 101.566C95.0193 101.566 95.8719 101.832 96.4954 102.35C97.119 102.868 97.488 103.512 97.6152 104.296H96.4063C96.3045 103.816 96.05 103.399 95.6428 103.019C95.2356 102.64 94.663 102.464 93.9503 102.464C93.2886 102.464 92.7542 102.628 92.3597 102.969C91.9652 103.31 91.7616 103.778 91.7616 104.384C91.7616 104.864 91.8888 105.243 92.1306 105.547C92.3724 105.85 92.6778 106.077 93.0341 106.229C93.3904 106.381 93.8867 106.57 94.4975 106.772C95.2102 107 95.7955 107.215 96.2409 107.429C96.6863 107.644 97.0553 107.96 97.3735 108.39C97.6789 108.819 97.8443 109.375 97.8443 110.07C97.8316 110.55 97.7171 111.03 97.4753 111.485Z" fill="white"/>
</g>
<defs>
<clipPath id="clip0">
<rect width="132" height="113" fill="white"/>
</clipPath>
</defs>
</svg>
