<svg width="106" height="68" viewBox="0 0 106 68" fill="none" xmlns="http://www.w3.org/2000/svg">
<path d="M101.069 66.3778V39.7131C101.069 29.8482 96.5204 24.9208 87.4139 24.9208C83.4809 24.9208 80.5463 25.7522 78.5999 27.4048C76.6637 29.0574 75.2216 31.2474 74.2837 33.9544V13.5351V1.86551V1.69316V0L53.0252 12.3387V14.3868H53.0454V15.137H57.886V54.4953L57.5532 55.7829L52.6117 37.1683L49.4552 25.7522H49.4048V25.5697L46.3693 14.3665L28.1564 24.931V27.5569H28.2774H31.3633L32.9971 32.5045L25.7764 56.0871L21.5812 39.7942L21.3795 39.044H21.3694L21.2484 38.5877V38.5776L18.465 28.2869L0 39.0034V41.6293H3.04557L11.0528 66.4082H7.68452V68H28.2068V66.4082H25.4638L34.4089 37.0467L42.6783 66.388H39.3302V67.9797H43.1321H44.7961H53.0555H56.8574H78.0755V66.388H74.2837V41.9335C74.2837 38.3951 74.9997 35.3839 76.4418 32.9C77.8839 30.416 79.5378 29.1791 81.4237 29.1791C82.654 29.1791 83.5112 29.6961 83.9751 30.7303C84.439 31.7644 84.681 34.0558 84.681 37.5942V66.3778H81.0707V67.9696H106.01V66.3778H101.069Z" fill="white"/>
</svg>
