<svg id="Layer_1" data-name="Layer 1" xmlns="http://www.w3.org/2000/svg" viewBox="0 0 1080 192.5398"><defs><style>.cls-1{fill:#f16243;}</style></defs><path class="cls-1" d="M100.4015,111.84,74.2508,182.57H52.8348L21.2033,96.898C16.72,83.9462,14.4781,78.4656,3.7721,77.2211V69H63.5407v8.2211C48.85,78.4656,48.3513,82.7017,52.5834,94.6563L72.009,148.45,93.1818,92.1632c-3.239-8.4683-5.9793-13.6976-13.949-14.9421V69H137.51v8.2211c-14.4435,1.2445-15.688,5.4806-11.4559,17.4352l19.4256,53.2947,19.9242-52.5488c4.9821-12.7.4986-16.9366-11.9545-18.1811V69h44.5832v8.2211c-8.9669,1.2445-12.9518,6.2265-17.9338,19.6769L147.721,182.57H126.305Z"/><path class="cls-1" d="M229.6677,185.809c-20.4228,0-33.6218-10.4627-33.6218-27.6466,0-28.1412,34.619-37.854,73.7216-44.5791V100.3842c0-16.9366-3.239-22.9159-15.4408-22.9159-12.2058,0-18.931,5.2334-22.4173,17.4352-2.74,9.2142-8.7155,13.45-15.9393,13.45-6.9725,0-11.9546-4.4834-11.9546-13.45,0-16.4379,21.1688-29.637,52.8-29.637,23.1632,0,43.0874,8.4683,43.0874,36.3622v58.03c0,7.7184,2.489,11.456,7.4711,11.456a17.7933,17.7933,0,0,0,8.2169-2.489v10.9573c-5.9752,3.9848-12.7,5.9752-22.4132,5.9752-11.7072,0-20.4228-4.2321-22.9118-15.688C259.3047,177.8393,245.1085,185.809,229.6677,185.809Zm40.1-60.0239c-25.4049,4.2361-42.09,10.4627-42.09,26.9007,0,10.706,6.9725,15.1894,15.6881,15.1894,9.4655,0,18.1811-4.2321,26.4021-9.96Z"/><path class="cls-1" d="M385.872,86.6866c-5.2334,0-11.7072,3.2349-16.4379,9.96v65.7519c0,7.97,2.9876,10.4587,15.4407,11.7032V182.57h-60.77v-8.4683c12.4531-1.2445,15.1934-3.7335,15.1934-11.7032V100.6315c0-5.728-1.9944-7.7224-6.9765-7.7224H324.105V85.438l34.619-20.1715h10.71V80.9586c8.2169-9.4655,20.4228-15.6921,31.8787-15.6921,13.6976,0,20.67,7.2238,20.67,17.4352,0,10.2074-6.7252,16.1867-14.6949,16.1867C394.3363,98.8884,394.089,86.6866,385.872,86.6866Z"/><path class="cls-1" d="M495,24.6722l34.615-20.1755h10.9614V162.3986c0,7.97,2.7363,10.4587,15.1894,11.7032V182.57a275.7077,275.7077,0,0,0-45.325,3.7375V173.8545c-7.7224,7.97-18.4325,12.4531-32.876,12.4531-31.8787,0-52.3016-25.1576-52.3016-60.5225,0-35.6123,20.4229-60.5186,52.3016-60.5186,14.4435,0,25.1536,4.4835,32.876,12.2018V39.8616c0-5.7279-1.9945-7.7183-7.2238-7.7183H495Zm15.4408,66.7451c-5.4807-7.7224-13.45-11.9545-23.9091-11.9545-21.42,0-29.637,17.1839-29.637,46.3223s8.217,46.0749,29.637,46.0749c10.4587,0,18.4284-4.2321,23.9091-11.9545Z"/><path class="cls-1" d="M639.4972,182.57v-8.4683c12.4531-1.2445,15.4408-3.7335,15.4408-11.7032v-61.52c0-13.1991-7.4711-18.6757-17.93-18.6757-9.9641,0-18.927,3.4863-27.3953,8.9629v71.2326c0,7.97,2.9876,10.4587,15.4408,11.7032V182.57h-60.77v-8.4683c12.4531-1.2445,15.1935-3.7335,15.1935-11.7032V39.8616c0-5.7279-1.9945-7.7183-6.9765-7.7183h-8.217V24.6722L598.9029,4.4967h10.71V77.4683c9.7128-6.2265,24.655-12.2018,38.1053-12.2018,16.438,0,37.3554,5.9753,37.3554,36.1109v61.0212c0,7.97,2.74,10.4587,15.1935,11.7032V182.57Z"/><path class="cls-1" d="M741.1411,185.809c-20.4228,0-33.6219-10.4627-33.6219-27.6466,0-28.1412,34.6191-37.854,73.7216-44.5791V100.3842c0-16.9366-3.2389-22.9159-15.4407-22.9159-12.2059,0-18.9311,5.2334-22.4173,17.4352-2.74,9.2142-8.7156,13.45-15.9394,13.45-6.9724,0-11.9545-4.4834-11.9545-13.45,0-16.4379,21.1687-29.637,52.8-29.637,23.1631,0,43.0874,8.4683,43.0874,36.3622v58.03c0,7.7184,2.489,11.456,7.471,11.456a17.7936,17.7936,0,0,0,8.217-2.489v10.9573c-5.9752,3.9848-12.7,5.9752-22.4132,5.9752-11.7073,0-20.4228-4.2321-22.9119-15.688C770.7781,177.8393,756.5818,185.809,741.1411,185.809Zm40.1-60.0239c-25.4049,4.2361-42.09,10.4627-42.09,26.9007,0,10.706,6.9724,15.1894,15.688,15.1894,9.4655,0,18.1811-4.2321,26.4021-9.96Z"/><path class="cls-1" d="M901.11,85.438l34.3718-20.1715H946.44v97.1321c0,7.97,2.9876,10.4587,15.4408,11.7032V182.57a280.97,280.97,0,0,0-45.5764,3.7375V174.1018c-9.7128,6.2265-24.659,12.2058-37.858,12.2058-16.6853,0-37.3554-6.2265-37.3554-36.3622V100.6315c0-5.728-1.9945-7.7224-6.9765-7.7224H825.65V85.438l34.6151-20.1715h10.9613v85.1776c0,13.4463,7.22,18.9269,17.6825,18.9269,9.96,0,18.927-3.4862,27.3953-9.2141V100.6315c0-5.728-1.9945-7.7224-6.9725-7.7224H901.11Z"/><path class="cls-1" d="M1074,147.2051c0,24.4077-20.9214,39.1025-48.0654,39.1025-15.6921,0-30.8856-5.2334-39.35-11.46l-2.9917,7.7224h-7.7183l-8.9669-39.35,6.7252-1.9945c14.1962,22.4173,32.126,32.876,51.3043,32.876,11.9545,0,22.4132-5.4766,22.4132-16.9366,0-12.2018-14.1962-15.9394-31.6274-20.4188-20.9214-5.4807-44.8305-12.4531-44.8305-36.8608,0-19.6769,18.927-34.6191,44.3319-34.6191,16.1866,0,26.6494,4.4835,34.12,9.96l2.74-6.2266h7.7183l7.2238,34.3718-7.2238,2.2418c-11.4559-19.9242-26.8966-28.6439-42.09-28.6439-12.2018,0-18.6757,5.9793-18.6757,13.7017,0,10.706,12.9477,14.4436,29.6371,18.6757C1051.3354,115.825,1074,122.7974,1074,147.2051Z"/></svg>