<svg id="Layer_1" data-name="Layer 1" xmlns="http://www.w3.org/2000/svg" viewBox="0 0 1080 745.027"><defs><style>.cls-1{fill:#4a415d;}</style></defs><path class="cls-1" d="M1011.7917,654.95l-.9959-252.7291c0-124.56-76.5141-148.7521-144.44-148.7521-41.6631,0-86.7855,13.8741-123.6815,31.6559-8.8891,3.7693-29.7543,17.2323-40.3305,28.1806V5.7762H659.1384V5.5405L525.1855,85.6787V116.56h33.9827c20.5746,0,28.8186,8.2263,28.8186,31.9021L590.801,602.19,428.9687,167.006l-42.0708.6043L273.3956,235.8378v30.0468c21.5174-.6008,91.4923,4.5561,86.9556,64.3218a78.49,78.49,0,0,1-4.8273,21.3773l-94.8346,255.437L156.2214,328.5246l.2375-.3828c-.0107-.0336-.0249-.0726-.0355-.1063l-40.6389.6025L5.4579,393.6545V424.472H40.6492c33.44,0,37.8388,25.6749,45.4945,44.9381l99.729,268.9142h86.4915L395.1526,408.147S483.76,647.3122,517.9906,738.3243H702.4142v-371.61s0-.9091,5.7276-5.54v.0035c.2374-.1949.4714-.3916.7088-.5865v-.071c.0851-.0549.17-.0974.2517-.1505,8.8217-7.11,22.2191-13.5729,31.7284-17.6435,25.5367-12.0471,52.36-19.2527,81.2565-19.2527,43.23,0,73.1612,22.6374,73.1612,77.1929l.7053,337.6575h177.1294V703.3226C1021.613,698.1781,1011.7917,687.8908,1011.7917,654.95Z"/></svg>