<svg width="116" height="113" viewBox="0 0 116 113" fill="none" xmlns="http://www.w3.org/2000/svg">
<g clip-path="url(#clip0)">
<path d="M109.867 82.7387V49.8756C109.867 37.7256 104.192 31.638 92.8533 31.638C87.9523 31.638 84.2955 32.661 81.8831 34.6944C79.4707 36.7278 77.6804 39.4306 76.4996 42.7776L76.4742 0L50.0136 15.1938L50.039 18.4523H56.0827V70.5382C55.4733 76.2469 54.0893 79.1013 51.9181 79.1013C49.7977 79.1013 48.7439 77.2194 48.7439 73.4304V51.3154C48.7439 43.4722 47.0806 38.0792 43.7666 35.1365C40.44 32.1937 34.4343 30.7286 25.7496 30.7286C10.4877 30.7286 2.85683 35.1996 2.85683 44.129C2.85683 50.1535 5.993 53.172 12.278 53.172C15.046 53.172 17.3568 52.389 19.1725 50.8228C21.0009 49.2567 21.9151 47.4128 21.9151 45.2657C21.9151 43.1186 21.623 41.2872 21.039 39.759H18.2837C17.852 38.5213 17.6235 37.3088 17.6235 36.109C17.6235 34.9091 18.1567 33.9619 19.2106 33.2799C20.2644 32.5852 21.458 32.2442 22.7658 32.2442C24.9497 32.2442 26.4352 33.4188 27.197 35.7806C27.9588 38.1424 28.3525 42.7776 28.3525 49.6735V58.0598H25.1782C16.6331 58.0598 10.2973 59.0197 6.18345 60.952C2.05692 62.8844 0 66.4208 0 71.5738C0 80.3643 5.39623 84.7595 16.2014 84.7595C19.8581 84.7595 22.6261 84.1027 24.5306 82.8018C26.4225 81.5009 27.8573 79.4675 28.7968 76.7016C30.1173 82.0819 35.1454 84.7595 43.9063 84.7595C44.465 84.7595 45.0109 84.7342 45.5442 84.7089H76.4361L76.4869 52.6037C76.4869 48.2337 77.3884 44.5205 79.1786 41.4641C80.9689 38.4076 83.0385 36.8794 85.3748 36.8794C86.9111 36.8794 87.965 37.5235 88.5617 38.7865C89.1458 40.0621 89.4378 42.8786 89.4378 47.2486V82.7387H89.4251V84.7089H116V82.7387H109.867ZM28.3652 69.9446C28.3652 73.2157 27.87 75.767 26.8923 77.6236C25.9019 79.4802 24.8481 80.4021 23.718 80.4021C22.588 80.4021 21.8135 79.8591 21.4199 78.7729C21.0136 77.6867 20.8231 75.2491 20.8231 71.4728V69.7299C20.8231 63.1244 23.0832 59.8154 27.616 59.8154H28.3778V69.9446H28.3652Z" fill="white"/>
<path d="M16.949 100.41H19.628L24.9735 112.737H21.8627L20.7708 110.059H15.6793L14.6 112.737H11.5781L16.949 100.41ZM19.9201 107.862L18.206 103.606L16.5427 107.862H19.9201Z" fill="white"/>
<path d="M27.9219 100.383H32.1246C33.6482 100.383 34.8291 100.699 35.6671 101.317C36.5051 101.936 36.9241 102.871 36.9241 104.096C36.9241 105.384 36.5051 106.369 35.6544 107.064C34.8037 107.746 33.6101 108.087 32.0738 108.087H30.6644V112.722H27.9219V100.383ZM31.8453 105.902C32.569 105.902 33.1404 105.763 33.534 105.485C33.9403 105.207 34.1307 104.778 34.1307 104.197C34.1307 103.679 33.9657 103.3 33.6355 103.035C33.3054 102.782 32.7594 102.644 32.023 102.644H30.6644V105.902H31.8453Z" fill="white"/>
<path d="M40.25 100.383H44.4527C45.9764 100.383 47.1572 100.699 47.9952 101.317C48.8332 101.936 49.2522 102.871 49.2522 104.096C49.2522 105.384 48.8332 106.369 47.9825 107.064C47.1318 107.746 45.9383 108.087 44.4019 108.087H42.9926V112.722H40.25V100.383ZM44.1607 105.902C44.8844 105.902 45.4558 105.763 45.8494 105.485C46.2557 105.207 46.4461 104.778 46.4461 104.197C46.4461 103.679 46.2811 103.3 45.951 103.035C45.6208 102.782 45.0749 102.644 44.3384 102.644H42.9799V105.902H44.1607Z" fill="white"/>
<path d="M52.7188 100.66H54.3186V105.775H61.0607V100.66H62.6605V112.734H61.0607V107.165H54.3186V112.734H52.7188V100.66Z" fill="white"/>
<path d="M67.8254 112.723H66.1367L71.3679 100.648H72.8534L78.0592 112.723H76.2563L74.9992 109.704H69.1078L67.8254 112.723ZM69.6792 108.315H74.4279L72.0789 102.492L69.6792 108.315Z" fill="white"/>
<path d="M85.5006 113C84.6753 113 83.977 112.861 83.3802 112.595C82.7962 112.318 82.3137 111.964 81.9328 111.522C81.5519 111.08 81.2725 110.562 81.0948 109.994C80.917 109.425 80.8281 108.832 80.8281 108.225V100.66H82.4279V108.099C82.4279 108.541 82.4787 108.958 82.5803 109.375C82.6819 109.792 82.8469 110.158 83.1009 110.474C83.3421 110.802 83.6596 111.055 84.0532 111.257C84.4468 111.459 84.9293 111.547 85.5006 111.547C86.0593 111.547 86.5418 111.446 86.9354 111.257C87.329 111.055 87.6464 110.802 87.8877 110.474C88.1289 110.145 88.294 109.779 88.4082 109.375C88.5225 108.971 88.5733 108.541 88.5733 108.099V100.66H90.1731V108.213C90.1731 108.819 90.0843 109.413 89.8938 109.981C89.716 110.562 89.4367 111.067 89.0558 111.509C88.6749 111.951 88.2051 112.318 87.621 112.583C87.0243 112.861 86.3259 113 85.5006 113Z" fill="white"/>
<path d="M100.674 102.884C100.42 102.531 100.077 102.253 99.6707 102.051C99.2644 101.849 98.7946 101.748 98.274 101.748C97.9947 101.748 97.7154 101.786 97.4233 101.861C97.1313 101.937 96.8774 102.051 96.6488 102.215C96.4203 102.379 96.2298 102.581 96.0902 102.821C95.9505 103.061 95.8743 103.364 95.8743 103.705C95.8743 104.059 95.9378 104.337 96.0648 104.552C96.1917 104.766 96.3695 104.956 96.598 105.12C96.8266 105.284 97.0932 105.41 97.3852 105.524C97.6773 105.625 98.0074 105.739 98.3502 105.84C98.7565 105.979 99.1755 106.118 99.6072 106.269C100.039 106.421 100.42 106.623 100.763 106.888C101.105 107.141 101.385 107.469 101.613 107.848C101.829 108.24 101.943 108.732 101.943 109.338C101.943 109.957 101.829 110.5 101.588 110.968C101.347 111.435 101.029 111.814 100.636 112.117C100.242 112.42 99.7977 112.647 99.3025 112.786C98.8073 112.925 98.2994 113.001 97.7662 113.001C97.0043 113.001 96.2679 112.849 95.5442 112.546C94.8331 112.243 94.2491 111.801 93.8047 111.233L95.0871 110.159C95.341 110.601 95.7219 110.955 96.1917 111.22C96.6615 111.485 97.1948 111.624 97.7789 111.624C98.0709 111.624 98.3629 111.586 98.6549 111.498C98.947 111.41 99.2263 111.283 99.4676 111.107C99.7088 110.93 99.912 110.715 100.064 110.45C100.217 110.185 100.306 109.869 100.306 109.503C100.306 109.124 100.229 108.808 100.064 108.555C99.8993 108.303 99.6961 108.101 99.4295 107.924C99.1628 107.76 98.8581 107.621 98.5026 107.507C98.1471 107.393 97.7916 107.28 97.4106 107.153C97.017 107.027 96.6234 106.888 96.2425 106.737C95.8616 106.585 95.5188 106.37 95.2268 106.118C94.9347 105.852 94.6935 105.537 94.503 105.158C94.3253 104.779 94.2237 104.312 94.2237 103.769C94.2237 103.175 94.3507 102.67 94.5919 102.228C94.8331 101.798 95.1506 101.445 95.5442 101.167C95.9378 100.889 96.3695 100.687 96.8647 100.561C97.3599 100.434 97.855 100.371 98.3502 100.371C99.074 100.371 99.7342 100.497 100.344 100.763C100.953 101.028 101.448 101.356 101.817 101.786L100.674 102.884Z" fill="white"/>
</g>
<defs>
<clipPath id="clip0">
<rect width="116" height="113" fill="white"/>
</clipPath>
</defs>
</svg>
