<svg width="642" height="593" viewBox="0 0 642 593" fill="none" xmlns="http://www.w3.org/2000/svg">
<g style="mix-blend-mode:multiply" clip-path="url(#clip0_3218_1229)">
<path d="M155.222 350.469C130.286 350.469 110.76 388.058 110.76 436.049C110.76 478.659 126.159 513.072 147.066 520.248V593.008H160.22V521.112C182.714 516.471 199.683 480.774 199.683 436.041C199.683 388.058 180.149 350.469 155.222 350.469ZM160.22 507.369V449.216C160.22 445.578 157.277 442.633 153.643 442.633C150.009 442.633 147.066 445.578 147.066 449.216V505.592C134.947 497.182 123.914 470.94 123.914 436.049C123.914 393.374 140.415 363.635 155.222 363.635C170.029 363.635 186.529 393.374 186.529 436.049C186.529 473.96 173.506 501.658 160.22 507.369Z" fill="#0d0916"/>
<path d="M47.956 388.949C23.0202 388.949 3.49414 426.539 3.49414 474.53C3.49414 517.139 18.893 551.552 39.8003 558.728V592.368H52.9546V559.592C75.4487 554.951 92.4178 519.254 92.4178 474.522C92.4178 426.539 72.8835 388.949 47.956 388.949ZM52.9546 545.85V487.696C52.9546 484.059 50.0113 481.113 46.3774 481.113C42.7435 481.113 39.8003 484.059 39.8003 487.696V544.072C27.6818 535.662 16.6485 509.42 16.6485 474.53C16.6485 431.855 33.1491 402.115 47.956 402.115C62.7629 402.115 79.2634 431.855 79.2634 474.53C79.2634 512.44 66.2406 540.139 52.9546 545.85Z" fill="#0d0916"/>
<path d="M184.977 247.179C185.042 246.454 186.522 229.33 175.21 216.888C168.764 209.795 159.712 205.762 148.235 204.857C146.944 199.665 144.058 191.444 137.752 183.363C121.063 161.944 93.9318 158.076 74.0852 158.594C43.2052 159.417 20.555 175.118 8.58451 204.01C-0.171378 225.166 -0.006948 245.804 0.0012735 246.677L0.0834884 252.766H184.451L184.977 247.179ZM12.6213 240.423C13.1968 233.263 14.9315 220.78 20.1193 208.404C30.2564 184.219 48.5245 171.612 74.4222 170.921C132.112 169.366 136.799 209.679 136.963 211.366L137.465 216.987H143.105C153.373 216.987 161.085 219.719 166.026 225.109C170.416 229.898 171.97 236.028 172.496 240.414H12.6213V240.423Z" fill="#0d0916"/>
<path d="M635.424 525.478H615.692V374.066H628.846C631.033 374.066 633.064 372.979 634.289 371.169C635.506 369.359 635.761 367.063 634.947 365.03L625.402 341.142H635.415C637.397 341.142 639.271 340.245 640.513 338.714C641.762 337.175 642.256 335.159 641.845 333.217L608.959 175.222C608.326 172.169 605.637 169.98 602.521 169.98H260.507C257.391 169.98 254.703 172.169 254.07 175.222L221.184 333.217C220.781 335.159 221.266 337.175 222.515 338.714C223.765 340.253 225.64 341.142 227.613 341.142H237.627L228.081 365.03C227.276 367.055 227.522 369.359 228.739 371.169C229.964 372.979 232.003 374.066 234.182 374.066H247.336V525.478H227.605C223.971 525.478 221.027 528.424 221.027 532.061V558.393C221.027 562.031 223.971 564.976 227.605 564.976H234.182V584.726C234.182 588.363 237.125 591.309 240.759 591.309H267.068C270.702 591.309 273.645 588.363 273.645 584.726V564.976H359.148V584.726C359.148 588.363 362.092 591.309 365.726 591.309H497.27C500.903 591.309 503.847 588.363 503.847 584.726V564.976H589.35V584.726C589.35 588.363 592.294 591.309 595.927 591.309H622.236C625.87 591.309 628.813 588.363 628.813 584.726V564.976H635.391C639.025 564.976 641.968 562.031 641.968 558.393V532.061C642.001 528.424 639.057 525.478 635.424 525.478ZM235.719 327.984L265.867 183.155H597.177L627.325 327.984H235.719ZM243.924 360.899L251.817 341.15H611.236L619.129 360.899H243.924ZM260.523 472.813H273.678V525.478H260.523V472.813ZM260.523 578.143H247.369V564.976H260.523V578.143ZM359.181 551.81H234.215V538.644H359.181V551.81ZM332.873 512.311V525.478H286.832V512.311H332.873ZM286.832 499.145V485.979H332.873V499.145H286.832ZM359.181 525.478H346.027V472.813H359.181V525.478ZM490.725 578.143H372.336V564.976H490.725V578.143ZM490.725 551.81H372.336V538.644H490.725V551.81ZM405.222 525.478V433.314C405.222 418.798 417.02 406.981 431.53 406.981C446.041 406.981 457.839 418.798 457.839 433.314V525.478H405.222ZM497.302 459.646C493.669 459.646 490.725 462.592 490.725 466.23V525.478H470.994V433.314C470.994 411.532 453.293 393.815 431.53 393.815C409.768 393.815 392.067 411.532 392.067 433.314V525.478H372.336V466.23C372.336 462.592 369.392 459.646 365.759 459.646H339.45C335.816 459.646 332.873 462.592 332.873 466.23V472.813H286.832V466.23C286.832 462.592 283.889 459.646 280.255 459.646H260.523V374.066H602.538V459.646H582.806C579.172 459.646 576.229 462.592 576.229 466.23V472.813H530.188V466.23C530.188 462.592 527.245 459.646 523.611 459.646H497.302ZM602.538 472.813V525.478H589.383V472.813H602.538ZM530.188 499.145V485.979H576.229V499.145H530.188ZM576.229 512.311V525.478H530.188V512.311H576.229ZM517.034 472.813V525.478H503.88V472.813H517.034ZM615.692 578.143H602.538V564.976H615.692V578.143ZM628.846 551.81H503.88V538.644H628.846V551.81Z" fill="#0d0916"/>
<path d="M444.685 459.648C441.051 459.648 438.107 462.594 438.107 466.232V472.815C438.107 476.452 441.051 479.398 444.685 479.398C448.319 479.398 451.262 476.452 451.262 472.815V466.232C451.262 462.594 448.319 459.648 444.685 459.648Z" fill="#0d0916"/>
<path d="M589.385 439.894V413.562C589.385 402.675 580.53 393.812 569.653 393.812H510.458C499.581 393.812 490.727 402.675 490.727 413.562V439.894C490.727 443.532 493.67 446.478 497.304 446.478H582.807C586.441 446.478 589.385 443.523 589.385 439.894ZM576.23 433.311H503.881V413.562C503.881 409.933 506.832 406.979 510.458 406.979H569.653C573.279 406.979 576.23 409.933 576.23 413.562V433.311Z" fill="#0d0916"/>
<path d="M352.604 393.812H293.409C282.532 393.812 273.678 402.675 273.678 413.562V439.894C273.678 443.532 276.621 446.478 280.255 446.478H365.758C369.392 446.478 372.336 443.532 372.336 439.894V413.562C372.336 402.667 363.481 393.812 352.604 393.812ZM359.181 433.311H286.832V413.562C286.832 409.933 289.784 406.979 293.409 406.979H352.604C356.23 406.979 359.181 409.933 359.181 413.562V433.311Z" fill="#0d0916"/>
<path d="M490.725 268.738H490.338C490.593 266.524 490.725 264.327 490.725 262.154C490.725 229.486 464.169 202.906 431.53 202.906C398.89 202.906 372.335 229.486 372.335 262.154C372.335 264.327 372.467 266.524 372.721 268.738H372.335C368.701 268.738 365.758 271.684 365.758 275.321V288.487C365.758 299.374 374.612 308.236 385.489 308.236H477.57C488.447 308.236 497.302 299.374 497.302 288.487V275.321C497.302 271.684 494.358 268.738 490.725 268.738ZM438.107 216.542C453.596 218.772 466.619 228.745 473.122 242.405H438.107V216.542ZM438.107 255.571H477.101C477.414 257.719 477.57 259.916 477.57 262.154C477.57 264.31 477.406 266.516 477.069 268.738H438.107V255.571ZM424.953 216.542V242.405H389.937C396.44 228.745 409.463 218.772 424.953 216.542ZM385.958 255.571H424.953V268.738H385.991C385.654 266.516 385.489 264.31 385.489 262.154C385.489 259.916 385.654 257.719 385.958 255.571ZM484.147 288.487C484.147 292.116 481.196 295.07 477.57 295.07H385.489C381.864 295.07 378.912 292.116 378.912 288.487V281.904H484.147V288.487Z" fill="#0d0916"/>
<path d="M424.493 124.658C424.633 123.531 427.798 96.9514 413.862 81.1272C408.485 75.0213 401.431 71.3677 392.848 70.2156C392.33 60.1599 389.362 39.7769 374.736 23.3767C362.026 9.1242 343.634 1.28205 320.063 0.0723967C305.519 -0.676434 282.261 4.26091 264.634 20.6364C253.494 30.9884 246.736 44.2534 244.878 59.3206C232.751 57.9052 207.412 57.2057 188.766 72.0589C174.748 83.2173 167.53 100.638 167.3 123.827L167.242 130.056H423.819L424.493 124.658ZM412.555 117.713H179.895C181.137 101.592 186.678 89.5206 196.396 81.7526C216.588 65.6239 248.89 72.4127 249.202 72.4786L256.519 74.0914L256.692 66.5949C257.037 51.8405 262.529 39.423 273.02 29.68C286.881 16.81 306.317 11.7245 319.43 12.3993C339.532 13.4279 355.021 19.8629 365.454 31.5068C381.856 49.8079 380.59 75.3669 380.573 75.6056L380.162 82.164H386.723C394.517 82.164 400.363 84.4846 404.58 89.2573C411.708 97.3217 412.654 110.397 412.555 117.713Z" fill="#0d0916"/>
</g>
<defs>
<clipPath id="clip0_3218_1229">
<rect width="642" height="593" fill="white"/>
</clipPath>
</defs>
</svg>
