<svg width="119" height="113" viewBox="0 0 119 113" fill="none" xmlns="http://www.w3.org/2000/svg">
<g clip-path="url(#clip0)">
<path d="M14.8359 100.551H19.3981C20.2388 100.551 21.0672 100.65 21.8585 100.862C22.6498 101.074 23.3545 101.411 23.985 101.884C24.6032 102.358 25.1101 102.981 25.481 103.754C25.8519 104.526 26.0374 105.486 26.0374 106.62C26.0374 107.679 25.8396 108.602 25.4563 109.362C25.073 110.122 24.5661 110.758 23.9479 111.256C23.3298 111.755 22.6127 112.129 21.7967 112.366C20.993 112.602 20.1647 112.727 19.3116 112.727H14.8359V100.551ZM18.9778 110.484C19.497 110.484 20.0039 110.421 20.4985 110.309C20.993 110.185 21.4381 109.985 21.8214 109.686C22.2047 109.399 22.5138 109.001 22.7487 108.502C22.9836 108.004 23.0948 107.38 23.0948 106.633C23.0948 105.835 22.9836 105.187 22.7487 104.688C22.5138 104.19 22.217 103.791 21.8338 103.517C21.4505 103.243 21.0178 103.043 20.5232 102.944C20.0287 102.844 19.5094 102.782 18.9778 102.782H17.5559V110.471H18.9778V110.484Z" fill="white"/>
<path d="M29.696 100.602H38.0167V102.845H32.4036V105.4H37.72V107.556H32.4036V110.41H38.301V112.74H29.6836V100.602H29.696Z" fill="white"/>
<path d="M40.6641 100.578H43.6066L46.6357 109.128H46.7222L49.7884 100.578H52.595L47.7608 112.742H45.4241L40.6641 100.578Z" fill="white"/>
<path d="M55.5859 100.824H57.1438V105.872H63.7088V100.824H65.2667V112.739H63.7088V107.243H57.1438V112.739H55.5859V100.824Z" fill="white"/>
<path d="M70.3123 112.727H68.668L73.7618 100.812H75.2083L80.2774 112.727H78.5218L77.2978 109.748H71.5611L70.3123 112.727ZM72.1051 108.377H76.7291L74.4418 102.632L72.1051 108.377Z" fill="white"/>
<path d="M87.5108 113C86.7071 113 86.0271 112.863 85.446 112.602C84.8773 112.327 84.4075 111.978 84.0366 111.542C83.6657 111.106 83.3937 110.595 83.2206 110.034C83.0475 109.473 82.9609 108.888 82.9609 108.289V100.824H84.5188V108.165C84.5188 108.601 84.5682 109.012 84.6671 109.424C84.766 109.835 84.9268 110.196 85.174 110.508C85.4089 110.832 85.718 111.081 86.1013 111.28C86.4846 111.48 86.9544 111.567 87.5108 111.567C88.0548 111.567 88.5246 111.467 88.9079 111.28C89.2911 111.081 89.6002 110.832 89.8351 110.508C90.07 110.184 90.2308 109.822 90.342 109.424C90.4533 109.025 90.5028 108.601 90.5028 108.165V100.824H92.0606V108.277C92.0606 108.875 91.974 109.461 91.7886 110.022C91.6155 110.595 91.3435 111.094 90.9726 111.53C90.6017 111.966 90.1442 112.327 89.5755 112.589C89.0068 112.863 88.3144 113 87.5108 113Z" fill="white"/>
<path d="M102.298 103.019C102.051 102.67 101.717 102.396 101.321 102.197C100.926 101.997 100.468 101.898 99.9614 101.898C99.6894 101.898 99.4174 101.935 99.133 102.01C98.8487 102.084 98.6014 102.197 98.3788 102.359C98.1563 102.521 97.9708 102.72 97.8348 102.957C97.6988 103.194 97.6246 103.493 97.6246 103.829C97.6246 104.166 97.6865 104.452 97.8101 104.664C97.9337 104.876 98.1068 105.063 98.3294 105.225C98.5519 105.387 98.8116 105.512 99.0959 105.611C99.3803 105.711 99.7017 105.823 100.036 105.923C100.431 106.06 100.839 106.197 101.26 106.347C101.68 106.496 102.051 106.696 102.385 106.957C102.718 107.207 102.99 107.531 103.213 107.905C103.423 108.291 103.534 108.777 103.534 109.375C103.534 109.986 103.423 110.522 103.188 110.983C102.953 111.444 102.644 111.818 102.261 112.117C101.878 112.416 101.445 112.64 100.963 112.778C100.481 112.915 99.9861 112.989 99.4668 112.989C98.725 112.989 98.0079 112.84 97.3032 112.541C96.6108 112.242 96.0421 111.805 95.6094 111.245L96.8581 110.185C97.1054 110.621 97.4763 110.97 97.9337 111.232C98.3912 111.494 98.9105 111.631 99.4792 111.631C99.7636 111.631 100.048 111.594 100.332 111.506C100.617 111.419 100.889 111.294 101.124 111.12C101.358 110.945 101.556 110.734 101.705 110.472C101.853 110.21 101.927 109.899 101.927 109.537C101.927 109.163 101.853 108.852 101.692 108.602C101.532 108.353 101.334 108.154 101.074 107.979C100.814 107.817 100.518 107.68 100.172 107.568C99.8254 107.456 99.4792 107.344 99.1083 107.219C98.725 107.094 98.3417 106.957 97.9708 106.808C97.5999 106.658 97.2661 106.446 96.9817 106.197C96.6974 105.935 96.4625 105.624 96.277 105.25C96.1039 104.876 96.005 104.415 96.005 103.879C96.005 103.293 96.1286 102.795 96.3636 102.371C96.5985 101.947 96.9076 101.598 97.2908 101.324C97.6741 101.05 98.0945 100.851 98.5767 100.726C99.0588 100.601 99.541 100.539 100.023 100.539C100.728 100.539 101.371 100.664 101.964 100.925C102.558 101.187 103.04 101.511 103.398 101.935L102.298 103.019Z" fill="white"/>
<path d="M112.856 84.0614L113.214 50.7983C113.35 38.4975 107.749 32.2786 96.4243 32.154C91.5283 32.1041 87.8563 33.0887 85.4206 35.1326C82.985 37.164 81.1675 39.8809 79.9559 43.2458L80.4628 0L57.3552 13.5595L57.3428 15.8028L63.3763 15.8651L62.585 83.2887H52.4097L53.2628 21.8223H53.3123L53.5224 4.49906L28.2388 19.3422L28.2141 21.7974L35.0141 21.8099L34.6679 36.8898C32.665 33.2632 28.4366 31.4062 22.0075 31.3314C7.54209 31.1694 0.198091 40.2672 0.00027273 58.6C-0.0986364 67.6604 1.55809 74.49 4.98282 79.1013C8.40755 83.7 13.2541 86.043 19.5348 86.1178C27.1385 86.205 32.2075 83.3137 34.7545 77.4437L34.8781 85.7065L79.4737 85.6816L79.8446 53.1911C79.8941 48.7668 80.8337 45.028 82.6512 41.9497C84.481 38.8714 86.5581 37.3509 88.8948 37.3759C90.4279 37.3883 91.4788 38.0489 92.0475 39.345C92.6163 40.6411 92.8759 43.4951 92.8264 47.9194L92.3814 85.8312L118.951 86.1303L118.976 84.1362L112.856 84.0614ZM34.6308 70.153C34.5937 73.9043 33.7777 76.7333 32.1828 78.6401C30.5879 80.5345 28.721 81.4692 26.5574 81.4567C24.4061 81.4318 22.9348 80.1481 22.1559 77.5933C21.377 75.0384 21.0308 69.9037 21.1174 62.1643L21.1792 56.419C21.2657 48.3182 21.7726 42.6476 22.6752 39.4198C23.5901 36.1919 25.2468 34.5842 27.6577 34.6091C30.0686 34.6341 31.8861 35.7557 33.0977 37.9865C34.3094 40.2049 34.9028 42.9093 34.8781 46.0749L34.6308 70.153Z" fill="white"/>
</g>
<defs>
<clipPath id="clip0">
<rect width="119" height="113" fill="white"/>
</clipPath>
</defs>
</svg>
