<svg id="Layer_1" data-name="Layer 1" xmlns="http://www.w3.org/2000/svg" viewBox="0 0 1080 191.1111"><defs><style>.cls-1{fill:#fff;}</style></defs><path class="cls-1" d="M100.0186,110.2167,74.2661,179.87h-21.09l-31.15-84.3675C17.6113,82.7476,15.4037,77.35,4.8607,76.1248V68.029H63.7191v8.0958c-14.4671,1.2256-14.9581,5.3973-10.79,17.17l19.13,52.9742,20.85-55.4293C89.7192,82.5,87.0206,77.35,79.1723,76.1248V68.029h57.3893v8.0958c-14.2236,1.2256-15.4491,5.3973-11.2815,17.17l19.13,52.4832,19.6208-51.7486c4.9062-12.507.491-16.6787-11.7725-17.9043V68.029h43.9043v8.0958c-8.83,1.2256-12.7545,6.1318-17.6607,19.3773L146.6175,179.87h-21.09Z"/><path class="cls-1" d="M227.3163,183.0592c-20.1118,0-33.11-10.3034-33.11-27.2256,0-27.7126,34.0919-37.2775,72.599-43.9V98.9353c0-16.6787-3.19-22.5669-15.2056-22.5669-12.02,0-18.6428,5.1537-22.0759,17.17-2.6986,9.0738-8.5829,13.2455-15.6967,13.2455-6.8663,0-11.7725-4.4152-11.7725-13.2455,0-16.1877,20.8464-29.1857,51.9962-29.1857,22.81,0,42.4312,8.3393,42.4312,35.8084v57.1458c0,7.6009,2.4511,11.2815,7.3573,11.2815a17.5218,17.5218,0,0,0,8.0918-2.4511v10.79c-5.8842,3.9242-12.507,5.8843-22.0719,5.8843-11.529,0-20.1118-4.1677-22.5629-15.4491C256.502,175.2109,242.5219,183.0592,227.3163,183.0592Zm39.4891-59.11c-25.018,4.1717-41.4492,10.3034-41.4492,26.4911,0,10.5429,6.8663,14.9581,15.4491,14.9581,9.3214,0,17.9042-4.1677,26-9.8084Z"/><path class="cls-1" d="M385.2687,85.4462c-5.1537,0-11.529,3.1857-16.1877,9.8084v64.7507c0,7.8483,2.9421,10.2994,15.2056,11.5249V179.87H324.4422V171.53c12.2635-1.2255,14.9621-3.6766,14.9621-11.5249V99.1788c0-5.6407-1.9641-7.6048-6.87-7.6048h-8.0918V84.2167l34.0919-19.8643H369.081V79.8055c8.0919-9.3214,20.1118-15.4531,31.3933-15.4531,13.489,0,20.3553,7.1138,20.3553,17.17,0,10.0519-6.6227,15.94-14.4711,15.94C393.604,97.4622,393.3605,85.4462,385.2687,85.4462Z"/><path class="cls-1" d="M496.8617,24.3762,530.95,4.5079H541.744V160.0053c0,7.8483,2.6947,10.2994,14.9582,11.5249V179.87a271.503,271.503,0,0,0-44.6349,3.6806V171.2867c-7.6048,7.8483-18.1517,12.2635-32.3753,12.2635-31.3933,0-51.5051-24.7745-51.5051-59.6009,0-35.07,20.1118-59.5969,51.5051-59.5969,14.2236,0,24.77,4.4151,32.3753,12.016V39.3344c0-5.6408-1.964-7.6009-7.1138-7.6009h-8.0918Zm15.2056,65.7287C506.67,82.5,498.8218,78.3324,488.5224,78.3324c-21.0939,0-29.1857,16.9222-29.1857,45.6169s8.0918,45.3733,29.1857,45.3733c10.2994,0,18.1477-4.1676,23.5449-11.7724Z"/><path class="cls-1" d="M643.2852,179.87V171.53c12.2635-1.2255,15.2056-3.6766,15.2056-11.5249V99.4223c0-12.998-7.3573-18.3913-17.6567-18.3913-9.8124,0-18.6388,3.4332-26.9781,8.8264v70.1479c0,7.8483,2.9421,10.2994,15.2056,11.5249V179.87H569.2171V171.53c12.2635-1.2255,14.9622-3.6766,14.9622-11.5249V39.3344c0-5.6408-1.9641-7.6009-6.87-7.6009h-8.0919V24.3762L603.309,4.5079h10.547v71.86c9.5648-6.1318,24.2794-12.016,37.525-12.016,16.1876,0,36.7865,5.8842,36.7865,35.5609v60.092c0,7.8483,2.6986,10.2994,14.9621,11.5249V179.87Z"/><path class="cls-1" d="M743.3812,183.0592c-20.1119,0-33.11-10.3034-33.11-27.2256,0-27.7126,34.0919-37.2775,72.599-43.9V98.9353c0-16.6787-3.19-22.5669-15.2057-22.5669-12.02,0-18.6427,5.1537-22.0758,17.17-2.6987,9.0738-8.5829,13.2455-15.6967,13.2455-6.8663,0-11.7725-4.4152-11.7725-13.2455,0-16.1877,20.8464-29.1857,51.9961-29.1857,22.8105,0,42.4313,8.3393,42.4313,35.8084v57.1458c0,7.6009,2.4511,11.2815,7.3573,11.2815a17.5218,17.5218,0,0,0,8.0918-2.4511v10.79c-5.8842,3.9242-12.507,5.8843-22.0719,5.8843-11.529,0-20.1118-4.1677-22.5629-15.4491C772.5669,175.2109,758.5868,183.0592,743.3812,183.0592Zm39.4891-59.11c-25.018,4.1717-41.4492,10.3034-41.4492,26.4911,0,10.5429,6.8663,14.9581,15.4491,14.9581,9.3214,0,17.9042-4.1677,26-9.8084Z"/><path class="cls-1" d="M900.9144,84.2167l33.8484-19.8643h10.79v95.6529c0,7.8483,2.9421,10.2994,15.2056,11.5249V179.87a276.6841,276.6841,0,0,0-44.8823,3.6806V171.53c-9.5649,6.1318-24.2835,12.02-37.2815,12.02-16.4312,0-36.7865-6.1317-36.7865-35.8084V99.1788c0-5.6407-1.9641-7.6048-6.87-7.6048h-8.3353V84.2167l34.0879-19.8643h10.7944v83.88c0,13.2415,7.11,18.6387,17.4132,18.6387,9.8084,0,18.6388-3.4331,26.9781-9.0738V99.1788c0-5.6407-1.9641-7.6048-6.8663-7.6048h-8.0958Z"/><path class="cls-1" d="M1075.298,145.0431c0,24.036-20.6028,38.5071-47.3334,38.5071-15.4532,0-30.4153-5.1537-38.7506-11.2854l-2.9461,7.6048h-7.6008l-8.83-38.7506,6.6228-1.9641c13.98,22.0759,31.6368,32.3753,50.523,32.3753,11.7725,0,22.0719-5.3932,22.0719-16.6787,0-12.0159-13.98-15.6966-31.1457-20.1078-20.6029-5.3972-44.1478-12.2635-44.1478-36.2994,0-19.3773,18.6387-34.0919,43.6567-34.0919,15.94,0,26.2436,4.4151,33.6009,9.8084l2.6986-6.1318h7.6008l7.1138,33.8484-7.1138,2.2076c-11.2814-19.6208-26.4871-28.2077-41.4492-28.2077-12.016,0-18.3912,5.8883-18.3912,13.4931,0,10.5429,12.75,14.2236,29.1857,18.3912C1052.9786,114.1409,1075.298,121.0072,1075.298,145.0431Z"/></svg>