<svg width="829" height="769" viewBox="0 0 829 769" fill="none" xmlns="http://www.w3.org/2000/svg">
<g clip-path="url(#clip0)">
<path d="M215.666 432.387C181.02 432.387 153.891 484.556 153.891 551.161C153.891 610.296 175.286 658.057 204.335 668.016V768.996H222.611V669.215C253.865 662.774 277.442 613.231 277.442 551.149C277.442 484.556 250.301 432.387 215.666 432.387ZM222.611 650.143V569.433C222.611 564.386 218.522 560.297 213.473 560.297C208.424 560.297 204.335 564.386 204.335 569.433V647.676C187.497 636.004 172.167 599.584 172.167 551.161C172.167 491.934 195.093 450.66 215.666 450.66C236.239 450.66 259.165 491.934 259.165 551.161C259.165 603.775 241.071 642.217 222.611 650.143Z" fill="#39314B"/>
<path d="M66.6311 485.793C31.9851 485.793 4.85547 537.962 4.85547 604.567C4.85547 663.702 26.2508 711.463 55.2995 721.422V768.109H73.5763V722.621C104.83 716.18 128.407 666.638 128.407 604.555C128.407 537.962 101.266 485.793 66.6311 485.793ZM73.5763 703.549V622.84C73.5763 617.792 69.4869 613.703 64.4379 613.703C59.3889 613.703 55.2995 617.792 55.2995 622.84V701.082C38.462 689.41 23.1323 652.99 23.1323 604.567C23.1323 545.34 46.0583 504.066 66.6311 504.066C87.2039 504.066 110.13 545.34 110.13 604.567C110.13 657.181 92.0359 695.623 73.5763 703.549Z" fill="#39314B"/>
<path d="M257.008 289.038C257.099 288.033 259.156 264.267 243.438 246.999C234.482 237.154 221.905 231.558 205.959 230.302C204.165 223.096 200.156 211.686 191.394 200.471C168.206 170.744 130.51 165.376 102.935 166.096C60.0297 167.238 28.5593 189.028 11.9274 229.126C-0.238114 258.488 -0.0096536 287.131 0.00176941 288.341L0.116 296.792H256.277L257.008 289.038ZM17.5361 279.662C18.3357 269.726 20.746 252.401 27.9539 235.224C42.0384 201.659 67.4204 184.163 103.403 183.204C183.558 181.045 190.069 236.994 190.298 239.336L190.995 247.136H198.831C213.098 247.136 223.813 250.927 230.678 258.408C236.778 265.055 238.937 273.563 239.668 279.65H17.5361V279.662Z" fill="#39314B"/>
<path d="M882.863 675.278H855.448V465.14H873.725C876.763 465.14 879.585 463.632 881.287 461.12C882.977 458.607 883.331 455.421 882.201 452.6L868.938 419.446H882.852C885.605 419.446 888.209 418.201 889.934 416.077C891.67 413.941 892.356 411.143 891.784 408.448L846.092 189.173C845.213 184.936 841.478 181.898 837.148 181.898H361.951C357.622 181.898 353.886 184.936 353.007 189.173L307.315 408.448C306.755 411.143 307.429 413.941 309.165 416.077C310.902 418.213 313.506 419.446 316.247 419.446H330.161L316.899 452.6C315.779 455.41 316.122 458.607 317.812 461.12C319.514 463.632 322.347 465.14 325.374 465.14H343.651V675.278H316.236C311.187 675.278 307.098 679.367 307.098 684.415V720.961C307.098 726.008 311.187 730.097 316.236 730.097H325.374V757.506C325.374 762.554 329.464 766.643 334.513 766.643H371.067C376.115 766.643 380.205 762.554 380.205 757.506V730.097H499.004V757.506C499.004 762.554 503.094 766.643 508.143 766.643H690.911C695.96 766.643 700.049 762.554 700.049 757.506V730.097H818.849V757.506C818.849 762.554 822.938 766.643 827.987 766.643H864.541C869.59 766.643 873.679 762.554 873.679 757.506V730.097H882.817C887.866 730.097 891.956 726.008 891.956 720.961V684.415C892.002 679.367 887.912 675.278 882.863 675.278ZM327.511 401.185L369.399 200.183H829.723L871.611 401.185H327.511ZM338.911 446.867L349.877 419.458H849.257L860.223 446.867H338.911ZM361.974 602.187H380.251V675.278H361.974V602.187ZM361.974 748.37H343.697V730.097H361.974V748.37ZM499.05 711.824H325.42V693.551H499.05V711.824ZM462.496 657.005V675.278H398.527V657.005H462.496ZM398.527 638.732V620.46H462.496V638.732H398.527ZM499.05 675.278H480.773V602.187H499.05V675.278ZM681.818 748.37H517.327V730.097H681.818V748.37ZM681.818 711.824H517.327V693.551H681.818V711.824ZM563.019 675.278V547.368C563.019 527.222 579.411 510.822 599.572 510.822C619.734 510.822 636.126 527.222 636.126 547.368V675.278H563.019ZM690.957 583.914C685.908 583.914 681.818 588.002 681.818 593.05V675.278H654.403V547.368C654.403 517.138 629.809 492.549 599.572 492.549C569.336 492.549 544.742 517.138 544.742 547.368V675.278H517.327V593.05C517.327 588.002 513.237 583.914 508.188 583.914H471.635C466.586 583.914 462.496 588.002 462.496 593.05V602.187H398.527V593.05C398.527 588.002 394.438 583.914 389.389 583.914H361.974V465.14H837.171V583.914H809.756C804.707 583.914 800.617 588.002 800.617 593.05V602.187H736.649V593.05C736.649 588.002 732.559 583.914 727.51 583.914H690.957ZM837.171 602.187V675.278H818.894V602.187H837.171ZM736.649 638.732V620.46H800.617V638.732H736.649ZM800.617 657.005V675.278H736.649V657.005H800.617ZM718.372 602.187V675.278H700.095V602.187H718.372ZM855.448 748.37H837.171V730.097H855.448V748.37ZM873.725 711.824H700.095V693.551H873.725V711.824Z" fill="#39314B"/>
<path d="M617.849 583.914C612.8 583.914 608.711 588.003 608.711 593.051V602.187C608.711 607.235 612.8 611.323 617.849 611.323C622.898 611.323 626.988 607.235 626.988 602.187V593.051C626.988 588.003 622.898 583.914 617.849 583.914Z" fill="#39314B"/>
<path d="M818.896 556.502V519.956C818.896 504.847 806.594 492.547 791.481 492.547H709.236C694.123 492.547 681.82 504.847 681.82 519.956V556.502C681.82 561.55 685.91 565.639 690.959 565.639H809.758C814.807 565.639 818.896 561.539 818.896 556.502ZM800.62 547.366H700.097V519.956C700.097 514.92 704.198 510.82 709.236 510.82H791.481C796.519 510.82 800.62 514.92 800.62 519.956V547.366Z" fill="#39314B"/>
<path d="M489.911 492.547H407.665C392.553 492.547 380.25 504.847 380.25 519.956V556.502C380.25 561.55 384.339 565.639 389.388 565.639H508.188C513.237 565.639 517.326 561.55 517.326 556.502V519.956C517.326 504.835 505.024 492.547 489.911 492.547ZM499.049 547.366H398.527V519.956C398.527 514.92 402.628 510.82 407.665 510.82H489.911C494.948 510.82 499.049 514.92 499.049 519.956V547.366Z" fill="#39314B"/>
<path d="M681.817 318.958H681.28C681.634 315.886 681.817 312.837 681.817 309.822C681.817 264.482 644.921 227.594 599.572 227.594C554.222 227.594 517.326 264.482 517.326 309.822C517.326 312.837 517.509 315.886 517.863 318.958H517.326C512.277 318.958 508.188 323.047 508.188 328.095V346.368C508.188 361.477 520.49 373.777 535.603 373.777H663.54C678.653 373.777 690.956 361.477 690.956 346.368V328.095C690.956 323.047 686.866 318.958 681.817 318.958ZM608.71 246.518C630.231 249.613 648.325 263.454 657.361 282.412H608.71V246.518ZM608.71 300.685H662.889C663.323 303.666 663.54 306.715 663.54 309.822C663.54 312.814 663.312 315.875 662.844 318.958H608.71V300.685ZM590.433 246.518V282.412H541.783C550.818 263.454 568.912 249.613 590.433 246.518ZM536.254 300.685H590.433V318.958H536.3C535.831 315.875 535.603 312.814 535.603 309.822C535.603 306.715 535.831 303.666 536.254 300.685ZM672.679 346.368C672.679 351.404 668.578 355.504 663.54 355.504H535.603C530.565 355.504 526.464 351.404 526.464 346.368V337.231H672.679V346.368Z" fill="#39314B"/>
<path d="M589.793 118.996C589.987 117.431 594.385 80.543 575.023 58.5813C567.553 50.1072 557.752 45.0365 545.826 43.4376C545.106 29.4817 540.983 1.19297 520.661 -21.5682C503.001 -41.3486 477.448 -52.2324 444.698 -53.9112C424.491 -54.9505 392.175 -48.0982 367.684 -25.3713C352.206 -11.0042 342.816 7.40575 340.235 28.3168C323.386 26.3525 288.18 25.3817 262.273 45.9958C242.796 61.4821 232.767 85.6594 232.447 117.843L232.367 126.488H588.857L589.793 118.996ZM573.207 109.357H249.947C251.672 86.9842 259.371 70.2303 272.873 59.4492C300.928 37.0649 345.809 46.4869 346.243 46.5783L356.41 48.8167L356.65 38.4126C357.129 17.9355 364.76 0.701885 379.336 -12.8201C398.595 -30.6818 425.599 -37.7397 443.819 -36.8032C471.748 -35.3757 493.269 -26.4448 507.765 -10.2847C530.553 15.1146 528.794 50.5869 528.771 50.9181L528.2 60.0203H537.316C548.145 60.0203 556.267 63.2409 562.127 69.8648C572.03 81.0569 573.344 99.2042 573.207 109.357Z" fill="#39314B"/>
</g>
<defs>
<clipPath id="clip0">
<rect width="892" height="823" fill="white" transform="translate(0 -54)"/>
</clipPath>
</defs>
</svg>
