<svg id="Layer_1" data-name="Layer 1" xmlns="http://www.w3.org/2000/svg" viewBox="0 0 1080 748.254"><defs><style>.cls-1{fill:#fff;}</style></defs><path class="cls-1" d="M1009.4414,653.0837V404.5088c0-122.76-85.2252-147.1006-152.17-147.1006-54.7912,0-115.6592,24.3406-155.2251,49.7051V9.8571H658.4179L517.3942,92.0439v30.434h33.489c20.2783,0,28.4029,8.1081,28.4029,31.4414V623.29L448.8268,164.108H403.6422L257.59,249.2259v31.52h29.5135l.0454-.2312s.5656-.0331,1.416-.07c.2559-.0124.3715-.0083.7018-.0206.9578-.0331,2.221-.0372,3.7816-.0248.2724.0041.3921-.0083.6811-.0041v.0123c1.0321.0166,2.1261.062,3.3481.12.2394.0123.4293.0123.677.0247.0661.0042.1239,0,.1941.0042.2766.0165.611.0536.8958.0743h.0042c1.4738.0949,3.026.2477,4.6815.4293.3385.033.6688.0743,1.0114.1156,1.56.1858,3.1417.4211,4.81.706.4459.0743.8917.1651,1.3417.2518,1.6844.31,3.3605.6605,5.0985,1.09.3344.0825.6729.19,1.0073.2807a59.4089,59.4089,0,0,1,22.3054,10.75c.4747.3839.966.7389,1.4284,1.1435a43.08,43.08,0,0,1,3.7031,3.7609c.2972.3385.644.6027.933.95.0578.0661.1115.1363.1693.2064.1857.2271.322.5161.5036.7473a39.113,39.113,0,0,1,2.9353,4.3512c.1651.2766.3756.5037.5325.7885.0867.161.1775.3138.2642.4748.2023.3757.3262.8339.52,1.222A42.1579,42.1579,0,0,1,352.2528,313c.0454.14.12.2559.1693.4.0908.2725.1857.5409.2724.8174.1734.5615.2354,1.2262.3881,1.8083a48.3513,48.3513,0,0,1,1.3,6.2007c.0413.26.0867.52.1156.7885.0867.7349.0372,1.5894.0867,2.3573.706,9.3548-.4954,20.4393-4.8879,34.0752-.0248.0785-.0331.14-.0578.2188l-.2642.7225-.6936,1.8949c.6234,1.5811,1.2385,3.0467,1.87,4.69l-86.249,229.2873s-66.9367-214.5822-86.8064-286.96H154.8774L8.8254,394.4151V425.939H43.5075a50.6167,50.6167,0,0,1,10.11.9908,11.8343,11.8343,0,0,1,2.56.5325,20.0459,20.0459,0,0,1,10.8946,7.1131c6.176,5.9448,13.7267,16.6661,21.2733,35.6523l97.85,265.0263h87.24L379.9622,447.13l105.52,288.1243H764.9453V700.7577c-50.7289-5.07-62.8992-15.2088-62.8992-47.674V362.9118c34.4963-22.31,71.0072-36.511,111.5969-36.511,42.6044,0,73.0384,22.31,73.0384,76.0769v250.606c0,32.4652-12.17,42.6044-62.8992,47.674V735.254h247.5511V700.7577C1020.6044,695.6881,1009.4414,685.5489,1009.4414,653.0837Z"/></svg>