<svg width="113" height="85" viewBox="0 0 113 85" fill="none" xmlns="http://www.w3.org/2000/svg">
<path d="M107.796 83.2806V54.9523C107.796 44.4769 103.001 39.2354 93.4179 39.2354C89.273 39.2354 86.1795 40.1141 84.1449 41.8713C82.1103 43.6286 80.59 45.9464 79.5992 48.8322V0L57.2261 13.1037L57.2488 16.0805H62.3467L62.3013 73.2066L48.6414 21.9128L29.4677 33.1456V35.933H33.4991L36.1388 47.2795L28.545 72.328L19.4384 38.2886L0 49.6805V52.4679H3.20696L13.0321 83.3033H9.4923V85H27.6449L37.6213 52.1044L46.7884 84.9697H46.8035H79.6295L79.6068 57.3004C79.6068 53.5359 80.3631 50.3319 81.8758 47.696C83.3886 45.0602 85.1357 43.7422 87.1174 43.7422C88.4183 43.7422 89.3108 44.2876 89.81 45.3859C90.3017 46.4841 90.5513 48.9155 90.5513 52.68V84.9621H113V83.2655H107.796V83.2806Z" fill="white"/>
</svg>
