<svg width="1906" height="281" viewBox="0 0 1906 281" fill="none" xmlns="http://www.w3.org/2000/svg">
<path d="M959.469 74.1514H959.808V11.7386V10.8208V2.17383L851.558 62.9441V70.6733V73.3784L877.919 73.3784L878.403 136.516C870.325 122.314 853.638 115.212 828.293 115.212C771.314 115.212 742.776 151.298 742.776 223.517C742.776 259.167 749.596 286.026 763.285 303.996C776.973 321.967 796.176 330.952 820.941 330.952C850.881 330.952 870.712 319.358 880.531 296.171L880.918 326.604L981.138 326.604V318.778H960.001L959.469 74.1514ZM879.66 267.476C879.66 282.258 876.565 293.417 870.374 300.953C864.182 308.489 856.83 312.257 848.366 312.257C839.853 312.257 834.049 307.233 830.856 297.282C827.664 287.282 826.116 267.042 826.116 236.608V214C826.116 182.118 827.857 159.8 831.291 146.998C834.726 134.245 841.207 127.869 850.736 127.869C860.216 127.869 867.423 132.216 872.308 140.912C877.194 149.607 879.66 160.186 879.66 172.649V267.476Z" fill="#1B1A50"/>
<path d="M1709.14 119.561L1608.97 119.561V127.386H1628.85V260.472C1628.85 276.414 1625.95 288.877 1620.19 297.862C1614.43 306.847 1607.9 311.34 1600.55 311.34C1593.2 311.34 1588.31 308.586 1585.85 303.079C1583.38 297.572 1582.17 286.123 1582.17 268.733V119.561L1477.7 119.561V127.386H1501.88V258.298C1501.88 306.75 1524.18 330.952 1568.82 330.952C1586.67 330.952 1600.12 327.812 1609.21 321.581C1618.26 315.349 1625.12 306.412 1629.72 294.819L1630.01 326.556H1732.89V318.731H1709.14V119.561Z" fill="#1B1A50"/>
<path d="M503.448 308.343C495.08 308.343 490.92 300.807 490.92 285.735V197.43C490.92 166.127 484.342 144.582 471.282 132.843C458.174 121.104 434.522 115.211 400.228 115.211C340.058 115.211 309.972 133.036 309.972 168.735C309.972 192.792 322.355 204.821 347.119 204.821C347.797 204.821 348.377 204.676 349.006 204.676C349.151 204.676 349.248 204.724 349.393 204.724C350.263 204.724 351.086 204.531 351.908 204.482C353.117 204.386 354.326 204.289 355.487 204.144C356.89 203.903 358.244 203.516 359.599 203.13C360.856 202.792 362.114 202.453 363.275 201.97C363.662 201.825 364 201.632 364.387 201.439C367.966 199.942 371.304 198.058 374.254 195.497C380.059 190.473 383.396 184.676 384.509 178.203C385.524 174.822 386.201 171.344 386.201 167.624C386.201 154.146 378.994 142.408 368.305 135.935C368.547 131.587 370.578 128.061 374.448 125.5C378.608 122.747 383.299 121.346 388.475 121.346C397.084 121.346 402.937 126.08 405.984 135.5C408.983 144.92 410.531 163.421 410.531 190.956V224.433H398.003C364.339 224.433 339.332 228.298 323.08 235.979C306.828 243.659 298.702 257.813 298.702 278.392C298.702 313.463 319.984 331.047 362.597 331.047C377.011 331.047 387.943 328.438 395.44 323.221C402.937 318.004 408.548 309.888 412.272 298.874C417.448 320.323 437.327 331.047 471.863 331.047C490.872 331.047 504.512 326.264 512.88 316.7C521.247 307.135 525.988 289.599 527.148 264.045L520.667 263.61C519.022 293.416 513.267 308.343 503.448 308.343ZM410.628 271.822C410.628 284.865 408.693 295.106 404.775 302.497C400.906 309.888 396.697 313.56 392.248 313.56C387.749 313.56 384.75 311.386 383.154 307.038C381.558 302.691 380.784 292.981 380.784 277.909V270.953C380.784 244.577 389.684 231.389 407.58 231.389H410.579V271.822H410.628Z" fill="#1B1A50"/>
<path d="M1901.26 221.873C1897.39 214.772 1892.07 208.83 1885.2 204.193C1877.41 199.121 1869.24 194.87 1860.58 191.343C1856.18 189.556 1851.63 188.01 1847.04 186.609C1832.91 182.358 1817.82 180.571 1804.04 175.112C1792.67 170.619 1782.37 160.137 1786.05 147.287C1787.79 141.2 1792.48 136.659 1797.99 133.52C1813.66 124.631 1834.7 122.361 1851.83 128.061C1852.94 128.447 1854.05 128.882 1855.16 129.269C1847.91 134.631 1843.17 143.036 1843.17 152.553C1843.17 168.735 1856.62 181.827 1873.21 181.827C1889.8 181.827 1903.24 168.735 1903.24 152.553C1903.24 141.828 1897.29 132.553 1888.54 127.481C1886.22 125.984 1883.61 124.873 1880.99 123.858C1874.56 121.394 1867.93 119.51 1861.16 118.206C1829.77 112.12 1789.24 115.936 1765.25 138.592C1751.41 151.683 1744.54 169.122 1744.54 191.053C1744.54 199.893 1745.9 207.671 1748.51 214.579H1748.03C1748.66 216.028 1749.58 217.236 1750.3 218.637C1750.78 219.699 1751.22 220.81 1751.8 221.825H1752.09C1754.94 226.414 1758.28 230.713 1762.59 234.336C1770.04 240.278 1778.02 245.495 1786.48 249.988C1790.83 252.258 1795.33 254.335 1799.88 256.171C1813.91 261.968 1829.24 265.301 1842.73 272.257C1858.79 280.47 1867.06 300.807 1849.26 312.159C1844.57 315.154 1839.15 316.845 1833.69 318.052C1816.71 321.724 1798.38 320.516 1782.18 314.285C1791.03 309.937 1797.51 301.435 1798.57 291.097C1800.22 275.011 1788.17 260.664 1771.68 259.021C1755.19 257.427 1740.48 269.166 1738.84 285.3C1737.92 294.092 1741.21 302.304 1747.01 308.246C1749.72 312.256 1754.12 315.009 1758.57 317.183C1764.91 320.323 1771.53 322.932 1778.31 324.96C1809.89 334.332 1851.88 334.477 1878.82 313.608C1894.34 301.58 1903.29 284.334 1905.57 261.871C1906.82 249.456 1905.32 231.051 1901.26 221.873Z" fill="#1B1A50"/>
<path d="M1461.1 306.313C1452.74 306.313 1448.58 298.777 1448.58 283.706V195.4C1448.58 164.097 1442 142.552 1428.94 130.814C1415.83 119.075 1392.18 113.182 1357.88 113.182C1297.71 113.182 1267.63 131.007 1267.63 166.706C1267.63 190.763 1280.01 202.791 1304.78 202.791C1305.45 202.791 1306.03 202.646 1306.66 202.646C1306.81 202.646 1306.9 202.695 1307.05 202.695C1307.92 202.695 1308.74 202.501 1309.56 202.453C1310.77 202.356 1311.98 202.26 1313.14 202.115C1314.55 201.873 1315.9 201.487 1317.25 201.101C1318.51 200.762 1319.77 200.424 1320.93 199.941C1321.32 199.796 1321.66 199.603 1322.04 199.41C1325.62 197.912 1328.96 196.028 1331.91 193.468C1337.67 188.444 1341.05 182.647 1342.16 176.174C1343.18 172.793 1343.86 169.314 1343.86 165.595C1343.86 152.117 1336.65 140.379 1325.96 133.905C1326.2 129.558 1328.23 126.031 1332.1 123.471C1336.26 120.718 1340.96 119.317 1346.13 119.317C1354.74 119.317 1360.59 124.051 1363.59 133.471C1366.59 142.89 1368.14 161.392 1368.14 188.927V222.404H1355.61C1321.95 222.404 1296.94 226.268 1280.69 233.949C1264.44 241.63 1256.26 255.784 1256.26 276.363C1256.26 311.434 1277.54 329.018 1320.16 329.018C1334.57 329.018 1345.5 326.409 1352.95 321.192C1360.45 315.975 1366.06 307.859 1369.78 296.845C1374.96 318.293 1394.84 329.018 1429.37 329.018C1448.38 329.018 1462.02 324.235 1470.39 314.67C1478.76 305.106 1483.5 287.57 1484.66 262.016L1478.18 261.581C1476.63 291.386 1470.87 306.313 1461.1 306.313ZM1368.24 269.745C1368.24 282.788 1366.3 293.029 1362.38 300.42C1358.51 307.811 1354.31 311.53 1349.86 311.53C1345.36 311.53 1342.36 309.357 1340.76 305.009C1339.17 300.661 1338.39 290.952 1338.39 275.88V268.924C1338.39 242.548 1347.29 229.36 1365.19 229.36H1368.19V269.745H1368.24Z" fill="#1B1A50"/>
<path d="M1229.95 187.866C1229.95 139.463 1207.65 115.212 1163.01 115.212C1143.71 115.212 1129.34 119.27 1119.81 127.386C1110.33 135.501 1103.27 146.225 1098.68 159.558V71.9292H1099.06V9.51649V8.59866V0L990.813 62.9441V73.3784H1001.89V73.3301H1018.34V326.604H1117.2V318.778H1098.63V198.735C1098.63 181.345 1102.16 166.563 1109.22 154.389C1116.28 142.216 1124.41 136.129 1133.6 136.129C1139.64 136.129 1143.8 138.69 1146.13 143.762C1148.45 148.834 1149.56 160.09 1149.56 177.48V326.701L1254.04 326.701V318.875H1229.85V187.866H1229.95Z" fill="#1B1A50"/>
<path d="M684.589 115.211C671.046 115.211 658.953 119.22 648.312 127.191C637.671 135.162 630.464 146.562 626.74 161.344V119.607L522.698 119.607V127.433H546.447V326.651H657.454V318.825H626.788V202.212C626.788 183.082 630.803 166.561 638.88 152.601C646.958 138.688 656.293 131.732 666.934 131.732C670.465 131.732 673.271 132.312 675.35 133.374C662.968 139.364 654.31 152.021 654.31 166.755C654.31 178.058 659.437 188.106 667.369 194.918C667.902 195.401 668.434 195.835 668.966 196.27C675.157 201.004 682.799 203.903 691.167 203.903C695.182 203.903 698.954 203.081 702.582 201.922C710.321 200.328 716.464 197.043 720.914 191.778C727.25 184.242 730.394 173.421 730.394 159.364C730.394 145.306 726.138 134.437 717.673 126.756C709.112 119.075 698.132 115.211 684.589 115.211Z" fill="#1B1A50"/>
<path d="M299.959 119.561L273.356 119.561L233.065 273.998L194.176 127.386H211.879V119.561L100.486 119.561V127.386H116.448L127.234 173.52L96.1811 275.303L56.4218 127.386H82.3476V119.561L-31.3193 119.561L34.8493 326.653H92.6985L133.28 193.084L170.863 326.653H230.018L281.821 127.386H299.959V119.561Z" fill="#1B1A50"/>
</svg>
