<?xml version="1.0" encoding="UTF-8"?><svg id="Layer_1" xmlns="http://www.w3.org/2000/svg" viewBox="0 0 512 512"><defs><style>.cls-1{fill:#ef6243;}</style></defs><path class="cls-1" d="M479.8521,391.1529l-.472-119.6588c0-58.9756-36.2271-70.4292-68.3884-70.4292-19.726,0-41.0901,6.5687-58.5591,14.9878-.0595,.0317-.1269,.0635-.1864,.0952-1.0036,.4819-1.9119,.9996-2.8837,1.4934-12.2529,6.6282-15.085,10.7237-15.085,10.7237l-.9401-144.5751h-20.4558v-.1111l-63.4222,37.9426v14.6209h16.0886c9.742,0,13.6451,3.8952,13.6451,15.1049l1.3328,214.8258-76.623-206.0457-19.9183,.2856-53.7397,32.3041v14.2263c10.9895-.3074,46.4014,1.5014,39.9815,37.6213h.1567c-.0734,.2796-.1904,.595-.2677,.8766-.0238,.1289-.0198,.234-.0456,.3629l-.0833,.0615c-.4006,1.4319-45.7569,122.5941-45.7569,122.5941,0,0-35.9296-95.4942-49.3685-132.0902l-19.2401,.2856L3.3846,267.4383v14.5912H20.0464c1.8385,0,3.4093,.1864,4.8571,.476,.2162,.0139,.6426,.0754,1.2296,.2558,2.255,.6366,6.1463,1.7671,7.4156,3.4172,2.967,2.856,4.4129,8.0066,8.0383,17.1278l47.0083,126.7214,41.1615,.6009,58.1366-156.3281s41.9509,113.2369,58.1585,156.3281h88.987s-.004-42.1948,0-42.2325l-.714-134.728c.5791-.6366,1.3328-1.2614,2.0944-1.8841v-.0337c.0397-.0258,.0793-.0456,.119-.0714,4.1768-3.3657,10.5195-6.4259,15.0216-8.3537,12.0902-5.704,24.7913-9.1153,38.4722-9.1153,20.4677,0,34.6404,10.7178,34.6404,36.5484l.3332,159.8703h83.8661v-16.5725c-24.3709-2.4355-29.0197-7.3065-29.0197-22.9032Z"/></svg>